<svg xmlns="http://www.w3.org/2000/svg" width="505.7" height="512" viewBox="0 0 505.7 512"><title>co-contact</title><path d="M151.2,7.5c77.7,0,140.9,63.5,140.5,141.2a140.3,140.3,0,0,1-35,92.1,8,8,0,0,0-1.3,8.6,130,130,0,0,0,15.9,25.1,4.7,4.7,0,0,1-3.1,7.6c-16.2,2.2-35.9-6-44.4-10a7.5,7.5,0,0,0-7,.2A140,140,0,0,1,153,288.5c-76.6,1-141.4-62.1-142.3-138.6A140.5,140.5,0,0,1,151.2,7.5Z" transform="translate(-3.2 0)" fill="#fd6930"/><path d="M271.3,274.5a4.7,4.7,0,0,1-3.1,7.6c-7.7,1-16.2-.3-24-2.4h1a4.7,4.7,0,0,0,3.1-7.6,130,130,0,0,1-15.9-25.1,8.2,8.2,0,0,1,1.2-8.6A140.4,140.4,0,0,0,154.9,7.6c76,2,137.2,64.6,136.8,141.1a139.9,139.9,0,0,1-35.1,92.1,8.2,8.2,0,0,0-1.2,8.6A130,130,0,0,0,271.3,274.5Z" transform="translate(-3.2 0)" fill="#fd5426"/><circle cx="220.7" cy="147.9" r="19" fill="#ffeee7"/><circle cx="148" cy="147.9" r="19" fill="#ffeee7"/><circle cx="75.3" cy="147.9" r="19" fill="#ffeee7"/><path d="M493.1,103.2a117.7,117.7,0,0,0-36-47.7c-17.3-13.5-42-28.6-64.6-18.7a37.1,37.1,0,0,0-15.2,12.5,48.6,48.6,0,0,0-6.5,12.4c-.4,1-15.1,47.6-20.5,70.2-3.7,15.2-.9,25.7,8.8,34a53.2,53.2,0,0,0,11.1,7.2c10.5,5.3,21.3,9.7,32.2,14.1l4.6,1.9,12.8,4.8-4.7,13.4A470.5,470.5,0,0,1,296.2,391.1l-8.8,9.5-11.3-10.7c-8.4-9-16.7-18.4-26.3-26-17-13.4-30.4-14.2-47.6-1.1C182,378,162,394.1,144.2,412c-19.8,19.8-18.4,38.8.9,59,16.8,17.6,37.5,27.7,61.3,32,30.6,5.5,65.3-4.9,92.1-20.5a401.5,401.5,0,0,0,63.3-45.4l26.7-25.7c47.7-50.5,80.6-112.4,101.7-182.8,11.8-39.2,19.1-86.8,2.9-125.4Z" transform="translate(-3.2 0)" fill="#a79ba7"/><path d="M419.8,193.9C434.9,150,448.5,103.8,460,57.8l-2.9-2.3c-15.6-12-36.5-25.1-57-21.1-15.8,3-25.8,15.5-30.3,30.3-6.9,22.3-14.1,44.6-19.5,67.2-4.8,20,1.4,31.8,19.9,41.2,11.9,6,24.4,11,36.8,16Z" transform="translate(-3.2 0)" fill="#7a6d79"/><path d="M287.4,400.6c-15.6,15.9-32,31.4-49.1,46.8-18.8,17-36.7,32.4-58.6,47.7A102.7,102.7,0,0,1,145.2,471c-19.4-20.2-20.8-39.2-1-59,17.8-17.9,37.8-34,58-49.2,17.2-13.1,30.6-12.3,47.6,1.1,9.6,7.6,17.9,17,26.4,26Z" transform="translate(-3.2 0)" fill="#7a6d79"/><path d="M490.2,228.6c-32.5,108.2-92.6,196.2-191.7,253.9-26.8,15.6-61.5,26-92.1,20.5-23.8-4.3-44.5-14.4-61.3-32-8-8.4-12.9-16.6-14.5-24.7l1.3,1.5c16.8,17.5,37.5,27.6,61.3,31.9,30.6,5.6,65.3-4.9,92.1-20.4,99.1-57.7,159.2-145.8,191.7-254,11.8-39.1,19.1-86.7,2.9-125.4l-.6-1.4a117.7,117.7,0,0,1,13.8,24.7c16.2,38.6,8.9,86.2-2.9,125.4Z" transform="translate(-3.2 0)" fill="#918291"/><path d="M193.2,479.7c-23.8-4.3-44.5-14.4-61.3-31.9l-1.3-1.5v.2l.3,1.1a30,30,0,0,0,1.6,4.8,42.1,42.1,0,0,0,4.7,8.9,67.8,67.8,0,0,0,6.1,7.8,102.7,102.7,0,0,0,22.5,18.7,117.2,117.2,0,0,0,11,6l2.3,1,.6.3c6.9-4.8,13.3-9.6,19.6-14.5a59.7,59.7,0,0,1-6.1-.9Z" transform="translate(-3.2 0)" fill="#685e68"/><path d="M153.1,296a148.3,148.3,0,0,0,67.2-17.1h.3c10.6,5,30.9,13,48.6,10.6a12.1,12.1,0,0,0,7.9-19.7,119,119,0,0,1-14.9-23.7c-.1,0,0-.2.1-.3A147.9,147.9,0,0,0,266,54.7a7.6,7.6,0,0,0-10.6-1.1,7.5,7.5,0,0,0-1,10.6A132.8,132.8,0,0,1,251,235.9a15.1,15.1,0,0,0-2.3,16.7A132.8,132.8,0,0,0,262.2,275c-13.5-.2-28.7-6.6-35.2-9.7a15.7,15.7,0,0,0-13.7.3A130.9,130.9,0,0,1,152.9,281c-35,.5-68.5-13.1-94.2-38.1s-40.1-58.1-40.5-93.1A133,133,0,0,1,230.4,41.2a7.5,7.5,0,0,0,10.5-1.5,7.6,7.6,0,0,0-1.6-10.5A147.9,147.9,0,0,0,3.2,149.9c.5,39.1,16.5,75.9,45.1,103.7S112.9,296,151.2,296Z" transform="translate(-3.2 0)"/><path d="M197.4,147.9a26.5,26.5,0,1,0,26.5-26.5A26.6,26.6,0,0,0,197.4,147.9Zm38,0a11.5,11.5,0,1,1-11.5-11.5A11.6,11.6,0,0,1,235.4,147.9Z" transform="translate(-3.2 0)"/><path d="M124.7,147.9a26.5,26.5,0,1,0,26.5-26.5A26.5,26.5,0,0,0,124.7,147.9Zm38,0a11.5,11.5,0,1,1-11.5-11.5A11.6,11.6,0,0,1,162.7,147.9Z" transform="translate(-3.2 0)"/><path d="M51.9,147.9a26.5,26.5,0,1,0,26.5-26.5A26.6,26.6,0,0,0,51.9,147.9Zm38,0a11.5,11.5,0,1,1-11.5-11.5A11.5,11.5,0,0,1,89.9,147.9Z" transform="translate(-3.2 0)"/><path d="M502.1,168a7.5,7.5,0,0,0-8.2,6.7A287,287,0,0,1,483,226.4c-21.5,71.9-55.1,132.3-99.8,179.7a374.3,374.3,0,0,1-40.5,37.2c-4.9,4-10,7.8-15.1,11.5C317,462.4,306,469.5,294.7,476c-28.9,16.9-61.5,24.2-87,19.6a105.4,105.4,0,0,1-12-2.8c16.7-12.5,31.5-25.2,47.7-39.8,18.4-16.7,34.5-32.1,49.3-47.2a.1.1,0,0,0,.1-.1h0l8.8-9.4A478.7,478.7,0,0,0,422.1,209.8s4.7-13.4,4.8-13.4C440.5,157,453,115.2,464.1,72a109,109,0,0,1,22.1,34.1,112.6,112.6,0,0,1,7.4,27.7,7.5,7.5,0,0,0,8.5,6.4,7.4,7.4,0,0,0,6.4-8.4,128.9,128.9,0,0,0-8.4-31.5c-1-2.4-2.1-4.7-3.2-7-10.1-20.7-25.2-36-43.4-49.5s-41.9-23.6-64-13.9a45,45,0,0,0-18.2,14.9,59,59,0,0,0-7.6,14.3c-.4,1.2-15.2,48-20.7,71.1-4.4,18-.8,31.1,11.2,41.4a70.4,70.4,0,0,0,12.6,8.2c10.7,5.4,21.7,9.9,32.8,14.4l4.6,1.8h.1l6,2.2-2.3,6.5A464.7,464.7,0,0,1,291,385.7l-.3.2-3.7,4-7.8-7.7c-.6-.7-16.3-17.6-24.8-24.2-20-15.8-37-16.1-56.7-1.2-17.2,12.9-39.3,30.3-58.9,49.9-22.1,22.3-21.8,45.7.9,69.5a111.8,111.8,0,0,0,26.8,20.7h0a89.7,89.7,0,0,0,10.3,5.1h.4a130,130,0,0,0,27.8,8.3,106.3,106.3,0,0,0,18.9,1.6c25,0,52.6-8,78.4-23,11.8-6.9,23.2-14.3,34.3-22.2,5.6-4.1,11-8.2,16.4-12.5,36.2-28.9,67.5-65.2,92-104.7,5.1-8.2,9.9-16.7,14.4-25.2a523.2,523.2,0,0,0,38-93.6,301.9,301.9,0,0,0,11.4-54.5,7.6,7.6,0,0,0-6.7-8.3Zm-92.4,14c-9.7-3.8-19.2-7.6-28.7-12-5.9-2.8-12-5.6-17-9.8-7.6-6.4-9.4-14.1-6.4-26.5,5.2-21.8,19.4-67,20.3-69.5a40.1,40.1,0,0,1,5.5-10.5,29.9,29.9,0,0,1,12.1-10.1c19.4-8.4,40.9,5.5,55.8,16.9l.2.2c-10.8,42.8-23,84.3-36.3,123.4-1.8-.6-3.7-1.3-5.5-2.1ZM173.3,483.5h0a96.6,96.6,0,0,1-22.7-17.7c-17.2-18.1-17.5-32.1-1.1-48.6,18.7-18.9,39.4-35.1,57.2-48.6,14.1-10.7,23.8-10.4,38.4,1.1,7.6,5.9,31.5,30.9,31.5,30.9-13,13.2-27.3,26.7-43.3,41.1-18.3,16.6-34.8,30.6-54.4,44.7C177,485.6,175.1,484.5,173.3,483.5Z" transform="translate(-3.2 0)"/></svg>