<svg xmlns="http://www.w3.org/2000/svg" width="510.9" height="512" viewBox="0 0 510.9 512"><title>co-stats</title><polygon points="116.3 503.6 154.6 503.6 154.6 256.5 116.3 214.2 78.1 256.5 78.1 503.6 116.3 503.6" fill="#ffdb56"/><path d="M118,215.5V503.6h37.2V256.5Z" transform="translate(-0.6)" fill="#fba806"/><polygon points="257.9 503.6 296.2 503.6 296.2 338.7 257.9 296.4 219.6 338.7 219.6 503.6 257.9 503.6" fill="#f77935"/><polygon points="257.8 296.4 257.8 503.6 257.9 503.6 296.2 503.6 296.2 338.7 257.9 296.4 257.8 296.4" fill="#d9510d"/><polygon points="399.4 503.6 437.7 503.6 437.7 137.4 399.4 95 361.2 137.4 361.2 503.6 399.4 503.6" fill="#894ba2"/><path d="M400.4,503.6h37.9V137.4L400.4,95.5V503.6Z" transform="translate(-0.6)" fill="#763794"/><path d="M9,110.4a8.4,8.4,0,0,0,8.4-8.4V8.4A8.4,8.4,0,0,0,.6,8.4V102A8.4,8.4,0,0,0,9,110.4Z" transform="translate(-0.6)"/><path d="M503,495.1H446.7V137.4a8.7,8.7,0,0,0-2.2-5.7L406.3,89.4a8.5,8.5,0,0,0-12.6,0l-38.2,42.3a8.7,8.7,0,0,0-2.2,5.7v83.8a8.5,8.5,0,0,0,16.9,0V140.6l29.8-33,29.8,33V495.1H370.2v-240a8.5,8.5,0,0,0-16.9,0v240H305.2V338.7A8.7,8.7,0,0,0,303,333l-38.3-42.3a8.4,8.4,0,0,0-12.5,0L213.9,333a8.7,8.7,0,0,0-2.2,5.7V495.1H163.6V256.5a8.2,8.2,0,0,0-2.2-5.6l-38.2-42.3a8.5,8.5,0,0,0-12.6,0L72.4,250.9a8.2,8.2,0,0,0-2.2,5.6v63.1a8.5,8.5,0,1,0,16.9,0V259.8l29.8-33,29.8,33V495.1H87.1V353.6a8.5,8.5,0,0,0-16.9,0V495.1H17.4V135.7a8.4,8.4,0,0,0-16.8,0V503.6A8.4,8.4,0,0,0,9,512H503a8.5,8.5,0,0,0,0-16.9Zm-274.4,0V341.9l29.9-33,29.8,33V495.1Z" transform="translate(-0.6)"/></svg>