<svg xmlns="http://www.w3.org/2000/svg" width="512" height="512" viewBox="0 0 512 512"><title>faq</title><path d="M346,319a10,10,0,0,0-10,10v69a50,50,0,0,1-50,50H178a10,10,0,0,0-10,10v19.9L144.1,454a9.9,9.9,0,0,0-9.1-6H70a50,50,0,0,1-50-50V244a50,50,0,0,1,50-50H171a10,10,0,0,0,0-20H70A70.1,70.1,0,0,0,0,244V398a70.1,70.1,0,0,0,70,70h59.9l41,41.1A10.1,10.1,0,0,0,178,512a8.4,8.4,0,0,0,3.8-.8A9.9,9.9,0,0,0,188,502V468h98a70.1,70.1,0,0,0,70-70V329A10,10,0,0,0,346,319Z"/><path d="M366.7,0H341.3C261.2,0,196,65.2,196,145.3s65.2,145.4,145.3,145.4h25.4a146.8,146.8,0,0,0,36.8-4.7l37.4,37.3a10.2,10.2,0,0,0,7.1,3,10.2,10.2,0,0,0,10-10V258.4a146.4,146.4,0,0,0,38.2-47.1,143.4,143.4,0,0,0,15.8-66C512,65.2,446.8,0,366.7,0ZM442,245.5a10.1,10.1,0,0,0-4,8v38.6l-24.5-24.4a9.9,9.9,0,0,0-7-3,10.5,10.5,0,0,0-3,.5,127.2,127.2,0,0,1-36.8,5.5H341.3c-69.1,0-125.3-56.2-125.3-125.4A125.4,125.4,0,0,1,341.3,20h25.4A125.3,125.3,0,0,1,442,245.5Z"/><path d="M399,109.4a42.4,42.4,0,0,0-71.1-28,42.7,42.7,0,0,0-13.4,31,10,10,0,0,0,20,0,21.8,21.8,0,0,1,7.1-16.3,22,22,0,0,1,16.8-6,22.3,22.3,0,0,1,3.3,44.1,18.9,18.9,0,0,0-14.9,18.5v24.1a10,10,0,0,0,20,0V153.5A42,42,0,0,0,399,109.4Z"/><path d="M363.9,209.3a10,10,0,0,0-14.2,14.1,10.1,10.1,0,0,0,14.2,0,10.3,10.3,0,0,0,2.9-7.1A10.1,10.1,0,0,0,363.9,209.3Z"/><path d="M275,310H64a10,10,0,0,0,0,20H275a10,10,0,0,0,0-20Z"/><path d="M282.1,368.9A10.1,10.1,0,1,0,285,376,10.5,10.5,0,0,0,282.1,368.9Z"/><path d="M235.7,366H64a10,10,0,0,0,0,20H235.7a10,10,0,1,0,0-20Z"/><path d="M210,254H64a10,10,0,0,0,0,20H210a10,10,0,0,0,0-20Z"/></svg>