<svg xmlns="http://www.w3.org/2000/svg" width="512" height="512" viewBox="0 0 512 512"><title>link</title><path d="M472.7,39.3c-52.4-52.4-138.7-52.4-191.1,0L202.9,118a133.7,133.7,0,0,0-32.4,52.4A134.8,134.8,0,0,0,118,202.9L39.3,281.6c-52.4,52.4-52.4,138.7,0,191.1s138.7,52.4,191.1,0L309.1,394a133.7,133.7,0,0,0,32.4-52.4A134.8,134.8,0,0,0,394,309.1l78.7-78.7C525.1,178,525.1,91.7,472.7,39.3ZM176.5,271.8a135.5,135.5,0,0,0,63.7,63.7L166.7,409c-17.3,17.3-46.2,17.3-63.5,0a45,45,0,0,1,0-63.7Zm111.3,101-78.7,78.7c-40.7,40.7-107.9,40.6-148.6,0s-40.7-107.9,0-148.6l78.7-78.7A104.9,104.9,0,0,1,163.6,206a136.2,136.2,0,0,0,2.5,34.3,67.7,67.7,0,0,0-5.6,5.1L82,324.1a75,75,0,0,0,0,106.1c29,29.1,76.9,29.1,105.9,0l78.7-78.7a75.1,75.1,0,0,0,0-106.1A45.2,45.2,0,0,1,255,201.9a103.2,103.2,0,0,1,32.8,22.3C328.8,265.1,328.8,331.8,287.8,372.8Zm47.7-132.6a135.5,135.5,0,0,0-63.7-63.7L345.3,103c17.3-17.3,46.2-17.3,63.5,0a45,45,0,0,1,.2,63.7Zm116-31.1-78.7,78.7A104.9,104.9,0,0,1,348.4,306a136.2,136.2,0,0,0-2.5-34.3,67.7,67.7,0,0,0,5.6-5.1l78.7-78.7c29.1-29,29.1-77.1,0-106.1s-77.1-29.1-106.1,0l-78.7,78.7a75.1,75.1,0,0,0,0,106.1A45,45,0,0,1,257,310.1a103.2,103.2,0,0,1-32.8-22.3c-41-40.9-41-107.6,0-148.6l78.7-78.7c40.7-40.7,107.9-40.7,148.6,0S492.2,168.4,451.5,209.1Z" transform="translate(0 0)"/><path d="M436.5,415.2,415.2,394A15,15,0,0,0,394,415.2l21.2,21.3a15.1,15.1,0,1,0,21.3-21.3Z" transform="translate(0 0)"/><path d="M118,96.8,96.8,75.6A15,15,0,0,0,75.5,96.8L96.8,118A15,15,0,1,0,118,96.8Z" transform="translate(0 0)"/><path d="M491.9,303.7l-29-7.8a15,15,0,0,0-7.8,29l29,7.8a15,15,0,0,0,7.8-29Z" transform="translate(0 0)"/><path d="M56.9,187.1l-29-7.8a15,15,0,0,0-7.8,29c31.9,8.6,30.3,8.3,32.9,8.3a15,15,0,0,0,3.9-29.5Z" transform="translate(0 0)"/><path d="M332.7,484.1l-7.8-29a15,15,0,1,0-29,7.8l7.8,29a15,15,0,1,0,29-7.8Z" transform="translate(0 0)"/><path d="M216.1,49.1l-7.8-29a15,15,0,1,0-29,7.8l7.8,29a15,15,0,0,0,29-7.8Z" transform="translate(0 0)"/></svg>