<svg xmlns="http://www.w3.org/2000/svg" width="52" height="52" viewBox="0 0 52 52"><title>settings</title><path d="M48.9,22.9a6.4,6.4,0,0,1-4-10.1l2-2.7L42.6,5.8,40,7.6A6.4,6.4,0,0,1,30,3.3L29.5,0h-6l-.8,4a6.4,6.4,0,0,1-9.9,4.2L9.4,5.8,5.1,10.1l2,2.7a6.4,6.4,0,0,1-4,10.1L0,23.5v6l3.3.5A6.4,6.4,0,0,1,7.6,40L5.8,42.6l4.3,4.3,2.7-2a6.4,6.4,0,0,1,10.1,4l.6,3.1h6l.4-2.3A6.3,6.3,0,0,1,40,45.5l1.9,1.4,4.3-4.3L44.4,40a6.4,6.4,0,0,1,4.3-10l3.3-.5v-6ZM26.5,31A4.5,4.5,0,1,1,31,26.5,4.5,4.5,0,0,1,26.5,31Z" fill="#c7cac7"/><path d="M26.5,17A9.5,9.5,0,1,0,36,26.5,9.6,9.6,0,0,0,26.5,17Zm0,14A4.5,4.5,0,1,1,31,26.5,4.5,4.5,0,0,1,26.5,31Z" fill="#556080"/></svg>