<svg xmlns="http://www.w3.org/2000/svg" width="512" height="512" viewBox="0 0 512 512"><title>stats</title><path d="M9,0A8.4,8.4,0,0,0,.6,8.4V102a8.4,8.4,0,0,0,16.8,0V8.4A8.4,8.4,0,0,0,9,0Z"/><path d="M503,495.1H446.7V137.4a8.7,8.7,0,0,0-2.2-5.7L406.3,89.4a8.5,8.5,0,0,0-12.6,0l-38.2,42.3a8.7,8.7,0,0,0-2.2,5.7v83.8a8.5,8.5,0,0,0,16.9,0V140.6l29.8-33,29.8,33V495.1H370.2v-240a8.5,8.5,0,0,0-16.9,0v240H305.2V338.7A8.7,8.7,0,0,0,303,333l-38.3-42.3a8.4,8.4,0,0,0-12.5,0L213.9,333a8.7,8.7,0,0,0-2.2,5.7V495.1H163.6V256.5a8.2,8.2,0,0,0-2.2-5.6l-38.2-42.3a8.5,8.5,0,0,0-12.6,0L72.4,250.9a8.2,8.2,0,0,0-2.2,5.6v63.1a8.5,8.5,0,1,0,16.9,0V259.8l29.8-33,29.8,33V495.1H87.1V353.6a8.5,8.5,0,0,0-16.9,0V495.1H17.4V135.7a8.4,8.4,0,0,0-16.8,0V503.6A8.4,8.4,0,0,0,9,512H503a8.5,8.5,0,0,0,0-16.9Zm-214.7,0H228.6V341.9l29.9-33,29.8,33V495.1Z"/></svg>