<svg xmlns="http://www.w3.org/2000/svg" width="40.2" height="520" viewBox="0 0 40.2 520"><title>icons</title><rect x="0.1" width="40" height="520" fill="none"/><path d="M11.6,200.6a10.9,10.9,0,0,1,10.9,11,10.8,10.8,0,0,1-2.7,7.2.6.6,0,0,0-.1.7,8,8,0,0,0,1.3,1.9.5.5,0,0,1-.1.6h-.2a7.1,7.1,0,0,1-3.5-.7.4.4,0,0,0-.5,0,10.8,10.8,0,0,1-5,1.2,11,11,0,1,1-.1-21.9Z" transform="translate(0.1 0)" fill="#fd6930"/><path d="M21,221.4a.5.5,0,0,1-.1.6h-.2a6.1,6.1,0,0,1-1.9-.1h.1c.2-.1.4-.3.3-.5h0a13.7,13.7,0,0,1-1.3-2,.9.9,0,0,1,.1-.7,11,11,0,0,0-1-15.5,10.7,10.7,0,0,0-5.1-2.5,10.9,10.9,0,0,1,10.6,11.2,10.6,10.6,0,0,1-2.7,7,.6.6,0,0,0-.1.7A8,8,0,0,0,21,221.4Z" transform="translate(0.1 0)" fill="#fd5426"/><circle cx="17.4" cy="211.6" r="1.5" fill="#ffeee7"/><circle cx="11.7" cy="211.6" r="1.5" fill="#ffeee7"/><circle cx="6" cy="211.6" r="1.5" fill="#ffeee7"/><path d="M38.3,208.1a9.7,9.7,0,0,0-2.8-3.8c-1.4-1-3.3-2.2-5.1-1.4a2.3,2.3,0,0,0-1.2,1,2.6,2.6,0,0,0-.5.9c0,.1-1.2,3.7-1.6,5.5a2.5,2.5,0,0,0,.7,2.7l.9.5,2.5,1.1.4.2,1,.4-.4,1a36.9,36.9,0,0,1-9.3,14.4l-.7.7-.9-.8a19.9,19.9,0,0,0-2-2.1,2.7,2.7,0,0,0-3.7-.1h0a43.1,43.1,0,0,0-4.6,3.9c-1.5,1.5-1.4,3,.1,4.6a8.9,8.9,0,0,0,4.8,2.5,11.5,11.5,0,0,0,7.2-1.6,33.6,33.6,0,0,0,4.9-3.5l2.1-2.1a35.1,35.1,0,0,0,8-14.2C39,214.8,39.5,211.1,38.3,208.1Z" transform="translate(0.1 0)" fill="#a79ba7"/><path d="M32.6,215.2c1.1-3.5,2.2-7.1,3.1-10.7l-.2-.2c-1.2-.9-2.9-1.9-4.5-1.6a3.3,3.3,0,0,0-2.4,2.4c-.5,1.7-1.1,3.4-1.5,5.2a2.6,2.6,0,0,0,1.5,3.2h.1l2.9,1.3Z" transform="translate(0.1 0)" fill="#7a6d79"/><path d="M22.2,231.3,18.4,235l-4.6,3.7a8.3,8.3,0,0,1-2.7-1.9c-1.5-1.6-1.6-3.1-.1-4.6a41.9,41.9,0,0,1,4.5-3.9,2.7,2.7,0,0,1,3.7.1h.1a19.9,19.9,0,0,1,2,2.1Z" transform="translate(0.1 0)" fill="#7a6d79"/><path d="M38.1,217.9c-2.6,8.4-7.3,15.3-15,19.8a11.5,11.5,0,0,1-7.2,1.6,8.9,8.9,0,0,1-4.8-2.5,3.1,3.1,0,0,1-1.1-1.9h.1a8.3,8.3,0,0,0,4.7,2.5,11.2,11.2,0,0,0,7.2-1.6c7.8-4.5,12.5-11.4,15-19.9.9-3,1.5-6.7.3-9.8h-.1a12.8,12.8,0,0,1,1.1,2C39.5,211.1,39,214.8,38.1,217.9Z" transform="translate(0.1 0)" fill="#918291"/><path d="M14.8,237.5a8.3,8.3,0,0,1-4.7-2.5H10c0,.1.1.2.1.4l.4.7.5.6,1.7,1.4.9.5h.2l1.5-1.1Z" transform="translate(0.1 0)" fill="#685e68"/><path d="M11.7,223.1a12.5,12.5,0,0,0,5.3-1.3h0a7.3,7.3,0,0,0,3.8.8.8.8,0,0,0,.8-1,.8.8,0,0,0-.2-.5,12.2,12.2,0,0,1-1.2-1.9h0a11.4,11.4,0,0,0,.3-14.9.5.5,0,0,0-.8-.1.6.6,0,0,0-.1.8h0a10.4,10.4,0,0,1-.2,13.4,1.3,1.3,0,0,0-.2,1.3,16.2,16.2,0,0,0,1,1.8,7,7,0,0,1-2.7-.8H16.4a10.4,10.4,0,1,1-5-19.5,10.6,10.6,0,0,1,6.4,2,.5.5,0,0,0,.8-.1.5.5,0,0,0-.2-.8A11.5,11.5,0,0,0,3.5,219.8a11.8,11.8,0,0,0,8.1,3.3Z" transform="translate(0.1 0)"/><path d="M15.2,211.6a2,2,0,0,0,2,2,2,2,0,0,0,2.1-2,2.1,2.1,0,0,0-2.1-2.1h0A2,2,0,0,0,15.2,211.6Zm2.9,0a.9.9,0,1,1-.9-.9h0a.9.9,0,0,1,.9.9Z" transform="translate(0.1 0)"/><path d="M9.5,211.6a2,2,0,0,0,2.1,2,2,2,0,0,0,2-2,2,2,0,0,0-2-2.1h0A2.1,2.1,0,0,0,9.5,211.6Zm3,0a.9.9,0,1,1-.9-.9.9.9,0,0,1,.9.9Z" transform="translate(0.1 0)"/><path d="M3.8,211.6a2,2,0,0,0,2.1,2,2,2,0,0,0,2-2,2,2,0,0,0-2-2.1h0A2.1,2.1,0,0,0,3.8,211.6Zm3,0a.9.9,0,1,1-.9-.9A.9.9,0,0,1,6.8,211.6Z" transform="translate(0.1 0)"/><path d="M39,213.1a.7.7,0,0,0-.7.6,18.9,18.9,0,0,1-.8,4,34.6,34.6,0,0,1-7.8,14,22.1,22.1,0,0,1-3.2,2.9l-1.2.9a22,22,0,0,1-2.5,1.7,10.1,10.1,0,0,1-6.8,1.5l-1-.2,3.8-3.1c1.4-1.3,2.7-2.5,3.8-3.7h0l.7-.7a36.7,36.7,0,0,0,9.4-14.6l.4-1.1c1.1-3,2-6.3,2.9-9.7a9.5,9.5,0,0,1,1.7,2.7,7.9,7.9,0,0,1,.6,2.2.8.8,0,0,0,.7.5h0a.8.8,0,0,0,.5-.7h0a11.7,11.7,0,0,0-.7-2.5c-.1-.1-.1-.3-.2-.5a10.7,10.7,0,0,0-3.4-3.9c-1.4-1-3.3-1.8-5-1.1a3.3,3.3,0,0,0-1.4,1.2,2.4,2.4,0,0,0-.6,1.1c-.1.1-1.2,3.8-1.6,5.6a2.8,2.8,0,0,0,.8,3.2l1,.7,2.6,1.1h.3l.5.2-.2.5a35.8,35.8,0,0,1-9.1,14.1h0l-.3.3-.6-.6a18,18,0,0,0-2-1.9,3.1,3.1,0,0,0-4.4-.1,43.1,43.1,0,0,0-4.6,3.9c-1.7,1.7-1.7,3.6.1,5.4a6.5,6.5,0,0,0,2.1,1.6h0l.8.4h0a8.1,8.1,0,0,0,2.2.7h1.4a12.4,12.4,0,0,0,6.2-1.8l2.6-1.7,1.3-1a31.3,31.3,0,0,0,7.2-8.2,12.8,12.8,0,0,0,1.1-2,31.2,31.2,0,0,0,3-7.3,31.5,31.5,0,0,0,.9-4.2.8.8,0,0,0-.5-.7Zm-7.2,1.1-2.3-.9a5.7,5.7,0,0,1-1.3-.8,1.8,1.8,0,0,1-.5-2.1c.4-1.7,1.5-5.2,1.6-5.4a2,2,0,0,1,.4-.8,3.9,3.9,0,0,1,1-.8c1.5-.6,3.2.4,4.3,1.3h0c-.8,3.4-1.8,6.6-2.8,9.7ZM13.3,237.8h0a8.6,8.6,0,0,1-1.8-1.4c-1.3-1.4-1.3-2.5-.1-3.8a41.1,41.1,0,0,1,4.5-3.8,2.1,2.1,0,0,1,2.9,0h.1a30.8,30.8,0,0,1,2.5,2.4L18,234.5a47,47,0,0,1-4.3,3.5Z" transform="translate(0.1 0)"/><path d="M22.3,374.4H5.5a4.7,4.7,0,0,0-4.7,4.7v12a4.7,4.7,0,0,0,4.7,4.7h5l3.4,3.4v-3.4h8.4a4.7,4.7,0,0,0,4.7-4.7v-12a4.7,4.7,0,0,0-4.7-4.7Z" transform="translate(0.1 0)" fill="#c7eaff"/><path d="M13.9,400l-.5-.2-3.2-3.2H5.5A5.5,5.5,0,0,1,0,391.1v-12a5.5,5.5,0,0,1,5.5-5.5h7.9a.7.7,0,0,1,.7.8.8.8,0,0,1-.7.8H5.5a3.8,3.8,0,0,0-3.9,3.9h0v12A3.8,3.8,0,0,0,5.5,395h5a.9.9,0,0,1,.8.5l1.8,1.8v-1.5a.8.8,0,0,1,.8-.8h8.4a4,4,0,0,0,4-3.9h0v-5.4a.8.8,0,0,1,.7-.8.8.8,0,0,1,.8.8v5.4a5.5,5.5,0,0,1-5.5,5.5H14.7v2.6a.8.8,0,0,1-.5.7Z" transform="translate(0.1 0)"/><path d="M28.6,360.8H26.7a10.5,10.5,0,0,0-10.6,10.6h0a10.5,10.5,0,0,0,10.6,10.5h1.9a11.2,11.2,0,0,0,3.2-.4l3.2,3.2v-4.9a10.4,10.4,0,0,0,4.2-8.4h0A10.5,10.5,0,0,0,28.6,360.8Z" transform="translate(0.1 0)" fill="#ffbc53"/><path d="M35,385.5l-.6-.2-2.9-3a9.2,9.2,0,0,1-2.9.4H26.7a11.4,11.4,0,1,1,0-22.7h1.9A11.4,11.4,0,0,1,40,371.4a11.6,11.6,0,0,1-1.2,5.1,13.5,13.5,0,0,1-3,3.7v4.5a.9.9,0,0,1-.8.8Zm-3.2-4.8.5.2,1.9,1.9v-3a.7.7,0,0,1,.3-.6,9.8,9.8,0,0,0-5.9-17.6H26.7a9.8,9.8,0,1,0,0,19.5h1.9a9.2,9.2,0,0,0,2.9-.4Z" transform="translate(0.1 0)"/><path d="M27.9,374.6a.8.8,0,0,1-.8-.8h0v-1.9a1.4,1.4,0,0,1,1.2-1.4,1.8,1.8,0,0,0,1.3-2.1A1.9,1.9,0,0,0,28,367a1.9,1.9,0,0,0-1.9,1.7h0a.8.8,0,0,1-.8.8.8.8,0,0,1-.7-.8,3.3,3.3,0,0,1,3.3-3.3,3.3,3.3,0,0,1,3.3,3.3,3.4,3.4,0,0,1-2.5,3.2v1.8a.9.9,0,0,1-.8.8Z" transform="translate(0.1 0)"/><path d="M27.9,377.7a.8.8,0,1,1,0-1.6.8.8,0,0,1,.5,1.4Z" transform="translate(0.1 0)"/><path d="M21.5,385.8H5a.8.8,0,1,1,0-1.6H21.5a.8.8,0,0,1,0,1.6Z" transform="translate(0.1 0)"/><path d="M21.5,390.2a.9.9,0,0,1-.8-.8.8.8,0,0,1,.8-.8.9.9,0,0,1,.8.8.5.5,0,0,1-.3.5A.5.5,0,0,1,21.5,390.2Z" transform="translate(0.1 0)"/><path d="M18.4,390.2H5a.9.9,0,0,1-.8-.8.8.8,0,0,1,.8-.8H18.4a.7.7,0,0,1,.8.8A.8.8,0,0,1,18.4,390.2Z" transform="translate(0.1 0)"/><path d="M16.4,381.4H5a.8.8,0,0,1-.8-.8.9.9,0,0,1,.8-.8H16.4a.9.9,0,0,1,.8.8.8.8,0,0,1-.8.8Z" transform="translate(0.1 0)"/><path d="M26.7,306.7l3.8-5.8-3.8-.9a10.1,10.1,0,0,0-2.5-4.1,10.6,10.6,0,0,0-4.1-2.6H20l-4.6-.2H13.3a10.6,10.6,0,0,0-4.1,2.6L3.1,302a10.5,10.5,0,1,0,14.6,15.2l.3-.3,6.2-6.1a11.6,11.6,0,0,0,2.5-4.1Zm-12.8,6.1a4.8,4.8,0,0,1-6.7,0,4.8,4.8,0,0,1,0-6.7l6.1-6,3.4,3.3,3.3,3.2Z" transform="translate(0.1 0)" fill="#4a696f"/><path d="M24.2,310.8,18,316.9a10.6,10.6,0,0,1-14.9,0h0l4.1-4.1a4.8,4.8,0,0,0,6.7,0h0l6.1-6.2-3.3-3.3,7.5-7.4a10.1,10.1,0,0,1,2.5,4.1l3.8.9-3.8,5.8A11.6,11.6,0,0,1,24.2,310.8Z" transform="translate(0.1 0)" fill="#384949"/><path d="M32.4,314.1l-1.6-1.7a1.1,1.1,0,0,1,0-1.6,1,1,0,0,1,1.6,0l1.7,1.6a1.2,1.2,0,0,1,0,1.7,1,1,0,0,1-1.6,0Z" transform="translate(0.1 0)" fill="#d2c5c2"/><path d="M7.6,289.2l-1.7-1.6a1.2,1.2,0,0,1,.1-1.7,1.2,1.2,0,0,1,1.6,0l1.6,1.7a1,1,0,0,1-.1,1.6A1.1,1.1,0,0,1,7.6,289.2Z" transform="translate(0.1 0)" fill="#dfd7d5"/><path d="M34.7,303.9a1.3,1.3,0,0,1,1.5-.8h0l2.2.6a1.2,1.2,0,0,1,.8,1.5,1.2,1.2,0,0,1-1.4.8l-2.2-.6a1.2,1.2,0,0,1-.9-1.4Z" transform="translate(0.1 0)" fill="#d2c5c2"/><path d="M.8,294.8a1.1,1.1,0,0,1,1.4-.8h0l2.3.6a1.2,1.2,0,0,1,.7,1.5,1.2,1.2,0,0,1-1.3.8l-2.3-.6a1.2,1.2,0,0,1-.8-1.5Z" transform="translate(0.1 0)" fill="#dfd7d5"/><path d="M23.7,318.4l-.6-2.2a1.1,1.1,0,0,1,.8-1.5,1.1,1.1,0,0,1,1.4.7c.1,0,.1.1.1.2l.6,2.2a1.1,1.1,0,0,1-.9,1.4,1.1,1.1,0,0,1-1.4-.8Z" transform="translate(0.1 0)" fill="#d2c5c2"/><path d="M14.6,284.4l-.6-2.2a1.2,1.2,0,0,1,2.3-.7h0l.6,2.2a1.2,1.2,0,0,1-.9,1.4,1.2,1.2,0,0,1-1.4-.8Z" transform="translate(0.1 0)" fill="#dfd7d5"/><path d="M36.9,283.1a10.6,10.6,0,0,0-14.9,0h0l-6.1,6.1A10.5,10.5,0,0,0,20,306.7h0a4.7,4.7,0,0,0,0-6.6,4.7,4.7,0,0,1,0-6.6l6.1-6.2a5.1,5.1,0,0,1,3.4-1.3h.4a4.6,4.6,0,0,1,2.9,1.3,4.8,4.8,0,0,1,0,6.7L26.7,300a10.9,10.9,0,0,1,0,6.7,10.6,10.6,0,0,0,4.1-2.6l6.1-6.1A10.6,10.6,0,0,0,36.9,283.1Z" transform="translate(0.1 0)" fill="#ffd400"/><path d="M20,306.6h0a9.3,9.3,0,0,1-4.1-2.6L20,300A4.7,4.7,0,0,1,20,306.6Z" transform="translate(0.1 0)" fill="#ff9f00"/><path d="M36.9,298l-6.1,6.1a10.6,10.6,0,0,1-4.1,2.6,10.9,10.9,0,0,0,0-6.7l6.1-6.1a4.8,4.8,0,0,0,0-6.7l4.1-4.1A10.4,10.4,0,0,1,36.9,298Z" transform="translate(0.1 0)" fill="#ff9f00"/><path d="M9.1,159.3h3V140l-3-3.3-3,3.3v19.3Z" transform="translate(0.1 0)" fill="#ffdb56"/><path d="M9.2,136.8v22.5h2.9V140Z" transform="translate(0.1 0)" fill="#fba806"/><path d="M20.1,159.3h3V146.5l-3-3.3-2.9,3.3v12.8Z" transform="translate(0.1 0)" fill="#f77935"/><path d="M20.1,143.2v16.1h3V146.5l-3-3.3Z" transform="translate(0.1 0)" fill="#d9510d"/><path d="M31.2,159.3h3V130.7l-3-3.3-3,3.3v28.6Z" transform="translate(0.1 0)" fill="#894ba2"/><path d="M31.2,159.3h3V130.7l-3-3.2Z" transform="translate(0.1 0)" fill="#763794"/><path d="M.7,128.6a.6.6,0,0,0,.6-.6h0v-7.3a.7.7,0,0,0-.6-.7.7.7,0,0,0-.7.7V128a.7.7,0,0,0,.7.6Z" transform="translate(0.1 0)"/><path d="M39.2,158.7H34.8v-28a.6.6,0,0,0-.1-.4l-3-3.3a.6.6,0,0,0-.9-.1h-.1l-3,3.3a.6.6,0,0,0-.1.4v6.6a.7.7,0,0,0,.7.6.9.9,0,0,0,.6-.6V131l2.3-2.6,2.3,2.6v27.7H28.9V139.9a.9.9,0,0,0-.8-.6.6.6,0,0,0-.5.6v18.8H23.8V146.5a.8.8,0,0,0-.2-.5l-3-3.3a.6.6,0,0,0-.9,0h0l-3,3.3a.8.8,0,0,0-.2.5v12.2H12.7V140a.6.6,0,0,0-.1-.4l-3-3.3a.7.7,0,0,0-1,0h0l-3,3.3a.8.8,0,0,0-.2.4v5c0,.3.3.7.6.7a.8.8,0,0,0,.8-.6h0v-4.7l2.3-2.6,2.3,2.6v18.4H6.8V147.6A.9.9,0,0,0,6,147a.9.9,0,0,0-.6.6v11.1H1.3V130.6a.7.7,0,0,0-.6-.7.7.7,0,0,0-.7.7H0v28.7a.7.7,0,0,0,.7.7H39.2a.6.6,0,0,0,.6-.7A.6.6,0,0,0,39.2,158.7Zm-21.4,0v-12l2.3-2.6,2.4,2.6v12Z" transform="translate(0.1 0)"/><path d="M30,61.2a10.5,10.5,0,0,1-2.1,5l1.3,1.3a2.9,2.9,0,0,0,2.6.8,4.8,4.8,0,0,1,2.3,9.3,4.8,4.8,0,0,1-5.8-3.5,4.5,4.5,0,0,1,0-2.3,3,3,0,0,0-.8-2.7l-1.3-1.3a10.3,10.3,0,0,1-5,2.2v1.6a2.7,2.7,0,0,0,.9,2.1,3.2,3.2,0,1,1-4.6.3l.4-.3a3,3,0,0,0,1-2.1V70a10.5,10.5,0,0,1-5.1-2.1l-1.6,1.6a2.7,2.7,0,0,0-.9,2,2.4,2.4,0,0,1-2.4,2.6,2.6,2.6,0,0,1-2.7-2.5A2.5,2.5,0,0,1,7,69.8,2.8,2.8,0,0,1,8.5,69a2.4,2.4,0,0,0,1.6-.7l2-2.1a10.1,10.1,0,0,1-2.1-5H8.4a2.7,2.7,0,0,0-2.1.9,3.3,3.3,0,0,1-4.6.4,3.3,3.3,0,0,1-.3-4.6,3.2,3.2,0,0,1,4.5-.4l.4.4a2.4,2.4,0,0,0,2.1.9H10a11.2,11.2,0,0,1,2.1-5l-1.3-1.3a2.7,2.7,0,0,0-2.6-.8,4.8,4.8,0,1,1,3.5-5.8,4.5,4.5,0,0,1,0,2.3,2.9,2.9,0,0,0,.8,2.6l1.3,1.3A10.5,10.5,0,0,1,18.9,50V48.4a3,3,0,0,0-1-2.1,3.2,3.2,0,0,1-.4-4.5,3.3,3.3,0,0,1,4.6-.5,3.2,3.2,0,0,1,.4,4.6.8.8,0,0,1-.4.4,2.7,2.7,0,0,0-.9,2V50a11.5,11.5,0,0,1,5.1,2.1L28.4,50a2.8,2.8,0,0,0,.8-1.5,2.1,2.1,0,0,1,2.3-1.9A2.2,2.2,0,0,1,33.4,49a2.1,2.1,0,0,1-1.8,1.8,2.8,2.8,0,0,0-1.5.8l-2.2,2.2a10.1,10.1,0,0,1,2.1,5h1.6a2.7,2.7,0,0,0,2.1-.9,3.2,3.2,0,1,1,4.9,4.2,3.2,3.2,0,0,1-4.5.4c-.2-.1-.3-.3-.4-.4a2.4,2.4,0,0,0-2.1-.9Z" transform="translate(0.1 0)" fill="#ff2261"/><path d="M30,61.2a10.5,10.5,0,0,1-2.1,5l1.3,1.3a2.9,2.9,0,0,0,2.6.8,4.8,4.8,0,0,1,5.8,3.5,4.8,4.8,0,1,1-9.3,2.3,4.5,4.5,0,0,1,0-2.3,3,3,0,0,0-.8-2.7l-1.3-1.3a10.3,10.3,0,0,1-5,2.2v1.6a2.7,2.7,0,0,0,.9,2.1,3.3,3.3,0,0,1,.4,4.6A3.3,3.3,0,0,1,20,79.4v-.3a2.8,2.8,0,0,0,1.3-3.7l-.6-.8a2.7,2.7,0,0,1-.7-1.8V69.5a1.1,1.1,0,0,1,.8-1c3.7-.4,6.6-4.1,6.6-8.5s-2.9-8.1-6.6-8.5a1.1,1.1,0,0,1-.8-1V47.1a2.4,2.4,0,0,1,.7-1.8,2.8,2.8,0,0,0-.1-3.9L20,41v-.4a3.2,3.2,0,0,1,3.3,3.2,3.3,3.3,0,0,1-1.2,2.5,2.7,2.7,0,0,0-.9,2V50a11.2,11.2,0,0,1,5,2.1L28.4,50a2.8,2.8,0,0,0,.8-1.5,2.1,2.1,0,0,1,2.3-1.9A2.2,2.2,0,0,1,33.4,49a2.1,2.1,0,0,1-1.8,1.8,2.8,2.8,0,0,0-1.5.8l-2.2,2.2a10.1,10.1,0,0,1,2.1,5h1.6a2.7,2.7,0,0,0,2.1-.9,3.2,3.2,0,1,1,4.9,4.2,3.2,3.2,0,0,1-4.5.4c-.2-.1-.3-.3-.4-.4a2.8,2.8,0,0,0-2.1-1Z" transform="translate(0.1 0)" fill="#b7305d"/><path d="M19.7,57.3a2,2,0,0,1-2,2h0a1.5,1.5,0,0,1-.9-.2,2,2,0,0,1-1-2.6,2,2,0,0,1,2.7-1,2,2,0,0,1,1.2,1.8Z" transform="translate(0.1 0)" fill="#99f5d2"/><path d="M19.7,57.3a2,2,0,0,1-2,2h0a1.5,1.5,0,0,1-.9-.2,1.9,1.9,0,0,0,1-2.6,1.9,1.9,0,0,0-1-1,2,2,0,0,1,2.7,1,1.9,1.9,0,0,1,.2.8Z" transform="translate(0.1 0)" fill="#69d8e4"/><path d="M25,60.5a1.8,1.8,0,0,1-1.8,1.8h0l-.8-.2a1.8,1.8,0,0,1-.8-2.4,1.5,1.5,0,0,1,.8-.8l.8-.2A1.8,1.8,0,0,1,25,60.5Z" transform="translate(0.1 0)" fill="#99f5d2"/><path d="M25,60.5a1.8,1.8,0,0,1-1.8,1.8h0l-.8-.2a1.8,1.8,0,0,0,.9-2.4,1.4,1.4,0,0,0-.9-.8l.8-.2A1.8,1.8,0,0,1,25,60.5Z" transform="translate(0.1 0)" fill="#69d8e4"/><path d="M19.6,63.3a1.5,1.5,0,0,1-1.5,1.4h-.6a1.5,1.5,0,0,1-.6-2,1,1,0,0,1,.6-.5.7.7,0,0,1,.6-.2A1.5,1.5,0,0,1,19.6,63.3Z" transform="translate(0.1 0)" fill="#99f5d2"/><path d="M19.6,63.3a1.5,1.5,0,0,1-1.5,1.4h-.6a1.5,1.5,0,0,0,.5-2,1.2,1.2,0,0,0-.5-.5.7.7,0,0,1,.6-.2A1.5,1.5,0,0,1,19.6,63.3Z" transform="translate(0.1 0)" fill="#69d8e4"/><path d="M28.8,73.5a2.9,2.9,0,0,1,.1-1.6,3.5,3.5,0,0,0-.9-3.1l-2.3-2.4a.6.6,0,1,0-.9.9h0l.6.5a11.2,11.2,0,0,1-4.3,1.6.6.6,0,0,0-.5.6v1.6a3.3,3.3,0,0,0,1.1,2.5,2.6,2.6,0,0,1,.3,3.8,2.7,2.7,0,0,1-3.7.3,2.8,2.8,0,0,1-1-2,.5.5,0,0,0-.6-.6c-.3,0-.5.2-.5.6h0a3.8,3.8,0,0,0,7.6,0,4.2,4.2,0,0,0-1.3-3,1.9,1.9,0,0,1-.7-1.6V70.5a10.2,10.2,0,0,0,4.4-1.9l.9,1a1.9,1.9,0,0,1,.6,2,6.7,6.7,0,0,0-.1,2,.6.6,0,0,0,.6.5h0A.6.6,0,0,0,28.8,73.5Z" transform="translate(0.1 0)"/><path d="M18.3,71.6a2.1,2.1,0,0,1-.8,1.6.6.6,0,0,0,0,.8.5.5,0,0,0,.8.1h0a3.3,3.3,0,0,0,1.2-2.5V70a.6.6,0,0,0-.6-.6,9,9,0,0,1-4.7-2,.5.5,0,0,0-.8.1l-1.6,1.6a2.8,2.8,0,0,0-1,2.4A2.1,2.1,0,0,1,9,73.7a2.2,2.2,0,0,1-2.2-1.9v-.2a2,2,0,0,1,.6-1.4,2.3,2.3,0,0,1,1.2-.6,3.4,3.4,0,0,0,1.9-.9l2.1-2a.6.6,0,0,0,0-.8,9.4,9.4,0,0,1-1.9-4.2h1.6a.6.6,0,0,0,.6-.5.6.6,0,0,0-.6-.6H8.4a3.3,3.3,0,0,0-2.5,1.1,2.7,2.7,0,0,1-3.8.3,2.7,2.7,0,0,1-.3-3.7A2.7,2.7,0,0,1,5.6,58l.3.3a3.3,3.3,0,0,0,2.5,1.1h3.1a.6.6,0,0,0,.6-.6.6.6,0,0,0-.6-.5h-.8a12,12,0,0,1,1.5-3.7l1.1,1.1a.6.6,0,0,0,.8-.8L11.3,52a3.8,3.8,0,0,0-3.2-.9A4.2,4.2,0,0,1,6,43a4.1,4.1,0,0,1,5.1,3,3.8,3.8,0,0,1,0,2.1,3.3,3.3,0,0,0,1,3.1l2.3,2.3c.1.2.2.2.4.2s.3,0,.4-.2a.5.5,0,0,0,0-.8h0l-.5-.5a9.4,9.4,0,0,1,4.2-1.6.6.6,0,0,0,.6-.6V48.4a3.3,3.3,0,0,0-1.2-2.5,2.7,2.7,0,0,1-.3-3.8,2.7,2.7,0,0,1,3.7-.3,2.6,2.6,0,0,1,1,2,.5.5,0,0,0,.6.6c.3,0,.5-.2.5-.6a3.8,3.8,0,0,0-7.6,0,4,4,0,0,0,1.3,3,2.1,2.1,0,0,1,.8,1.6v1.1a11.4,11.4,0,0,0-4.4,1.8l-1-.9a2.1,2.1,0,0,1-.6-2.1,5.4,5.4,0,0,0-4-6.5,5.3,5.3,0,0,0-6.5,3.9,5.5,5.5,0,0,0,4,6.6,5.7,5.7,0,0,0,2.6,0,1.9,1.9,0,0,1,2,.6l1,.9a10.1,10.1,0,0,0-1.9,4.5H8.4a2.1,2.1,0,0,1-1.6-.8,3.8,3.8,0,0,0-5.4-.4,3.7,3.7,0,0,0-.5,5.4,3.8,3.8,0,0,0,5.4.4l.5-.4a2.1,2.1,0,0,1,1.6-.8H9.5a10.6,10.6,0,0,0,1.9,4.5L9.7,67.8a2.1,2.1,0,0,1-1.3.7,3.1,3.1,0,0,0,.7,6.2,3.1,3.1,0,0,0,2.8-3.2,2.4,2.4,0,0,1,.7-1.6l1.2-1.3a11.1,11.1,0,0,0,4.5,1.9Z" transform="translate(0.1 0)"/><path d="M31.6,61.7a2.1,2.1,0,0,1,1.6.8,3.8,3.8,0,0,0,5.4.4,3.7,3.7,0,0,0,.5-5.4,3.8,3.8,0,0,0-5.4-.4l-.5.4a2.1,2.1,0,0,1-1.6.8H30.5a11.1,11.1,0,0,0-1.9-4.5L30.5,52a2.3,2.3,0,0,1,1.2-.6,2.6,2.6,0,0,0,2.2-3.1,2.3,2.3,0,0,0-.7-1.5,2.7,2.7,0,0,0-1.9-.8h0a2.6,2.6,0,0,0-2.7,2.4,2.7,2.7,0,0,1-.6,1.2l-1.8,1.8a10.2,10.2,0,0,0-4.4-1.9V48.3a2,2,0,0,1,.7-1.6.6.6,0,0,0,.1-.8h0a.6.6,0,0,0-.9,0h0a3.2,3.2,0,0,0-1.1,2.4V50a.6.6,0,0,0,.5.6,9.3,9.3,0,0,1,4.8,2,.6.6,0,0,0,.8,0l2.1-2.2a3.1,3.1,0,0,0,.9-1.9,1.6,1.6,0,0,1,1.6-1.3h0a1.5,1.5,0,0,1,1.5,1.5,1.6,1.6,0,0,1-.5,1.1,1.4,1.4,0,0,1-.8.5,3.4,3.4,0,0,0-1.9.9l-2.1,2.2a.6.6,0,0,0-.1.8,8.6,8.6,0,0,1,1.9,4.1H27.7a.6.6,0,0,0-.6.5.6.6,0,0,0,.6.6h3.9a3.3,3.3,0,0,0,2.5-1.1,2.7,2.7,0,0,1,3.8-.3,2.7,2.7,0,0,1,.3,3.7,2.7,2.7,0,0,1-3.8.3l-.3-.3a3.3,3.3,0,0,0-2.5-1.1H28.5a.6.6,0,0,0-.6.6.6.6,0,0,0,.6.5h.8a11.4,11.4,0,0,1-1.5,3.6l-1-1a.6.6,0,0,0-.9,0,.6.6,0,0,0,0,.8h0l2.9,2.8a3,3,0,0,0,3.1.9A4.3,4.3,0,0,1,37,72a4.1,4.1,0,0,1-3.1,5A3.8,3.8,0,0,1,30,75.9l-.4-.4a.5.5,0,0,0-.8-.1.6.6,0,0,0-.2.8l.5.6a5.4,5.4,0,0,0,7.7-7.7,5.7,5.7,0,0,0-5.1-1.4,2.1,2.1,0,0,1-2.1-.6l-.9-1a11.4,11.4,0,0,0,1.8-4.4Z" transform="translate(0.1 0)"/><path d="M17.7,54.7a2.6,2.6,0,0,0,0,5.2,2.6,2.6,0,1,0,0-5.2Zm0,4a1.4,1.4,0,1,1,0-2.8,1.4,1.4,0,0,1,1.4,1.4h0a1.4,1.4,0,0,1-1.4,1.4Z" transform="translate(0.1 0)"/><path d="M20.8,60.5a2.4,2.4,0,1,0,2.4-2.4h0A2.4,2.4,0,0,0,20.8,60.5Zm2.4-1.2a1.2,1.2,0,0,1,1.2,1.2,1.2,1.2,0,0,1-2.4,0,1.2,1.2,0,0,1,1.2-1.2Z" transform="translate(0.1 0)"/><path d="M16.1,63.3a2,2,0,0,0,2,2,1.9,1.9,0,0,0,2-2,2,2,0,0,0-2-2,2.1,2.1,0,0,0-2,2Zm2.9,0a.9.9,0,0,1-.9.9.9.9,0,0,1-.8-.9.8.8,0,0,1,.8-.8h0a.9.9,0,0,1,.9.8Z" transform="translate(0.1 0)"/><circle cx="4.9" cy="46.5" r="0.6"/><circle cx="5.3" cy="48.6" r="0.6"/><circle cx="6.9" cy="47.4" r="0.6"/><path d="M32.7,70a.6.6,0,1,0,.6.6h0A.6.6,0,0,0,32.7,70Z" transform="translate(0.1 0)"/><path d="M32.6,72.8a.6.6,0,0,0,.5.6.6.6,0,0,0,.6-.6.5.5,0,0,0-.6-.6h0C32.8,72.2,32.6,72.4,32.6,72.8Z" transform="translate(0.1 0)"/><circle cx="34.9" cy="71.5" r="0.6"/><circle cx="22.5" cy="65.8" r="0.6"/><circle cx="22.5" cy="54.7" r="0.6"/><circle cx="14.9" cy="61" r="0.6"/><path d="M11.7,183.1a12.5,12.5,0,0,0,5.3-1.3h0a7.3,7.3,0,0,0,3.8.8.8.8,0,0,0,.8-1,.8.8,0,0,0-.2-.5,12.2,12.2,0,0,1-1.2-1.9h0a11.4,11.4,0,0,0,.3-14.9.5.5,0,0,0-.8-.1.6.6,0,0,0-.1.8h0a10.4,10.4,0,0,1-.2,13.4,1.3,1.3,0,0,0-.2,1.3,16.2,16.2,0,0,0,1,1.8,7,7,0,0,1-2.7-.8H16.4a10.4,10.4,0,1,1-5-19.5,10.6,10.6,0,0,1,6.4,2,.5.5,0,0,0,.8-.1.5.5,0,0,0-.2-.8A11.5,11.5,0,0,0,3.5,179.8a11.8,11.8,0,0,0,8.1,3.3Z" transform="translate(0.1 0)"/><path d="M15.2,171.6a2,2,0,0,0,2,2,2,2,0,0,0,2.1-2,2.1,2.1,0,0,0-2.1-2.1h0A2,2,0,0,0,15.2,171.6Zm2.9,0a.9.9,0,1,1-.9-.9h0a.9.9,0,0,1,.9.9Z" transform="translate(0.1 0)"/><path d="M9.5,171.6a2,2,0,0,0,2.1,2,2,2,0,0,0,2-2,2,2,0,0,0-2-2.1h0A2.1,2.1,0,0,0,9.5,171.6Zm3,0a.9.9,0,1,1-.9-.9.9.9,0,0,1,.9.9Z" transform="translate(0.1 0)"/><path d="M3.8,171.6a2,2,0,0,0,2.1,2,2,2,0,0,0,2-2,2,2,0,0,0-2-2.1h0A2.1,2.1,0,0,0,3.8,171.6Zm3,0a.9.9,0,1,1-.9-.9A.9.9,0,0,1,6.8,171.6Z" transform="translate(0.1 0)"/><path d="M39,173.1a.7.7,0,0,0-.7.6,18.9,18.9,0,0,1-.8,4,34.6,34.6,0,0,1-7.8,14,22.1,22.1,0,0,1-3.2,2.9l-1.2.9a22,22,0,0,1-2.5,1.7,10.1,10.1,0,0,1-6.8,1.5l-1-.2,3.8-3.1c1.4-1.3,2.7-2.5,3.8-3.7h0l.7-.7a36.7,36.7,0,0,0,9.4-14.6l.4-1.1c1.1-3,2-6.3,2.9-9.7a9.5,9.5,0,0,1,1.7,2.7,7.9,7.9,0,0,1,.6,2.2.8.8,0,0,0,.7.5h0a.8.8,0,0,0,.5-.7h0a11.7,11.7,0,0,0-.7-2.5c-.1-.1-.1-.3-.2-.5a10.7,10.7,0,0,0-3.4-3.9c-1.4-1-3.3-1.8-5-1.1a3.3,3.3,0,0,0-1.4,1.2,2.4,2.4,0,0,0-.6,1.1c-.1.1-1.2,3.8-1.6,5.6a2.8,2.8,0,0,0,.8,3.2l1,.7,2.6,1.1h.3l.5.2-.2.5a35.8,35.8,0,0,1-9.1,14.1h0l-.3.3-.6-.6a18,18,0,0,0-2-1.9,3.1,3.1,0,0,0-4.4-.1,43.1,43.1,0,0,0-4.6,3.9c-1.7,1.7-1.7,3.6.1,5.4a6.5,6.5,0,0,0,2.1,1.6h0l.8.4h0a8.1,8.1,0,0,0,2.2.7h1.4a12.4,12.4,0,0,0,6.2-1.8l2.6-1.7,1.3-1a31.3,31.3,0,0,0,7.2-8.2,12.8,12.8,0,0,0,1.1-2,31.2,31.2,0,0,0,3-7.3,31.5,31.5,0,0,0,.9-4.2.8.8,0,0,0-.5-.7Zm-7.2,1.1-2.3-.9a5.7,5.7,0,0,1-1.3-.8,1.8,1.8,0,0,1-.5-2.1c.4-1.7,1.5-5.2,1.6-5.4a2,2,0,0,1,.4-.8,3.9,3.9,0,0,1,1-.8c1.5-.6,3.2.4,4.3,1.3h0c-.8,3.4-1.8,6.6-2.8,9.7ZM13.3,197.8h0a8.6,8.6,0,0,1-1.8-1.4c-1.3-1.4-1.3-2.5-.1-3.8a41.1,41.1,0,0,1,4.5-3.8,2.1,2.1,0,0,1,2.9,0h.1a30.8,30.8,0,0,1,2.5,2.4L18,194.5a47,47,0,0,1-4.3,3.5Z" transform="translate(0.1 0)"/><path d="M27,344.9a.8.8,0,0,0-.7.8h0v5.4a3.9,3.9,0,0,1-4,3.9H13.9a.8.8,0,0,0-.8.8h0v1.5l-1.8-1.8a.9.9,0,0,0-.8-.5h-5a3.8,3.8,0,0,1-3.9-3.9h0v-12a3.8,3.8,0,0,1,3.9-3.9h7.9a.8.8,0,0,0,.7-.8.7.7,0,0,0-.7-.8H5.5A5.5,5.5,0,0,0,0,339.1v12a5.5,5.5,0,0,0,5.5,5.5h4.6l3.2,3.2.6.2h.3a.8.8,0,0,0,.5-.7v-2.6h7.6a5.5,5.5,0,0,0,5.5-5.5v-5.4a.8.8,0,0,0-.8-.8Z" transform="translate(0.1 0)"/><path d="M28.6,320H26.7a11.4,11.4,0,1,0,0,22.7h1.9a9.2,9.2,0,0,0,2.9-.4l2.9,3a.8.8,0,0,0,1.1,0,.9.9,0,0,0,.3-.6v-4.5a13.5,13.5,0,0,0,3-3.7,11.6,11.6,0,0,0,1.2-5.1A11.4,11.4,0,0,0,28.6,320Zm5.9,19.2a.7.7,0,0,0-.3.6v3l-1.9-1.9-.5-.2h-.3a9.2,9.2,0,0,1-2.9.4H26.7a9.8,9.8,0,1,1,0-19.5h1.9a9.7,9.7,0,0,1,9.8,9.7,9.9,9.9,0,0,1-3.9,7.9Z" transform="translate(0.1 0)"/><path d="M31.2,328.5a3.2,3.2,0,0,0-3.4-3.1,3.2,3.2,0,0,0-3.2,3.4.8.8,0,0,0,.8.8.8.8,0,0,0,.7-.8,1.8,1.8,0,0,1,1.8-1.8H28a1.8,1.8,0,0,1,.3,3.5,1.4,1.4,0,0,0-1.2,1.4v1.9a.8.8,0,0,0,.8.8.9.9,0,0,0,.8-.8V332A3.4,3.4,0,0,0,31.2,328.5Z" transform="translate(0.1 0)"/><path d="M28.4,336.4a.7.7,0,0,0-1.1-.1.9.9,0,0,0,0,1.2.8.8,0,0,0,1.1,0h0a.9.9,0,0,0,.3-.6A.5.5,0,0,0,28.4,336.4Z" transform="translate(0.1 0)"/><path d="M21.5,344.2H5a.8.8,0,1,0,0,1.6H21.5a.8.8,0,0,0,0-1.6Z" transform="translate(0.1 0)"/><path d="M22,348.8a.8.8,0,1,0,0,1.1.5.5,0,0,0,.3-.5A.9.9,0,0,0,22,348.8Z" transform="translate(0.1 0)"/><path d="M18.4,348.6H5a.8.8,0,0,0-.8.8.9.9,0,0,0,.8.8H18.4a.8.8,0,0,0,.8-.8A.7.7,0,0,0,18.4,348.6Z" transform="translate(0.1 0)"/><path d="M16.4,339.8H5a.9.9,0,0,0-.8.8.8.8,0,0,0,.8.8H16.4a.8.8,0,0,0,.8-.8.9.9,0,0,0-.8-.8Z" transform="translate(0.1 0)"/><path d="M36.9,243.1a10.6,10.6,0,0,0-14.9,0l-6.1,6.1a10.6,10.6,0,0,0-2.6,4.1,10.6,10.6,0,0,0-4.1,2.6L3.1,262a10.4,10.4,0,0,0,0,14.9,10.4,10.4,0,0,0,14.9,0h0l6.1-6.1a10.6,10.6,0,0,0,2.6-4.1,10.6,10.6,0,0,0,4.1-2.6l6.1-6.1A10.6,10.6,0,0,0,36.9,243.1ZM13.8,261.2a10.1,10.1,0,0,0,5,5L13,272a3.5,3.5,0,0,1-4.9-.1,3.4,3.4,0,0,1,0-4.9Zm8.7,7.9-6.2,6.2A8.2,8.2,0,0,1,4.7,263.7h0l6.2-6.2a9.4,9.4,0,0,1,1.9-1.4,8.2,8.2,0,0,0,.2,2.7l-.5.4-6.1,6.1a5.9,5.9,0,0,0,.1,8.3,5.9,5.9,0,0,0,8.2,0l6.1-6.1a5.9,5.9,0,0,0,0-8.3,3.6,3.6,0,0,1-.9-3.4,7.8,7.8,0,0,1,2.6,1.7,8.2,8.2,0,0,1,0,11.6Zm3.7-10.3a10.1,10.1,0,0,0-5-5L27,248a3.5,3.5,0,0,1,5,5h0Zm9.1-2.5-6.2,6.2a9.4,9.4,0,0,1-1.9,1.4,8.2,8.2,0,0,0-.2-2.7l.5-.4,6.1-6.1a5.9,5.9,0,0,0-8.3-8.3h0l-6.1,6.1a5.9,5.9,0,0,0,0,8.3,3.6,3.6,0,0,1,.9,3.4,7.8,7.8,0,0,1-2.6-1.7,8.2,8.2,0,0,1,0-11.6l6.2-6.2a8.2,8.2,0,1,1,11.7,11.5Z" transform="translate(0.1 0)"/><path d="M34.1,272.4l-1.7-1.6a1,1,0,0,0-1.6.1,1.1,1.1,0,0,0,0,1.5l1.6,1.7a1.2,1.2,0,0,0,1.7.1,1,1,0,0,0,.1-1.6C34.2,272.5,34.1,272.5,34.1,272.4Z" transform="translate(0.1 0)"/><path d="M9.2,247.6l-1.6-1.7a1.2,1.2,0,0,0-1.7,0,1,1,0,0,0,0,1.6h0l1.7,1.6a1.1,1.1,0,0,0,1.6.1,1.2,1.2,0,0,0,.1-1.7Z" transform="translate(0.1 0)"/><path d="M38.4,263.7l-2.2-.6a1.2,1.2,0,0,0-1.5.8,1.3,1.3,0,0,0,.9,1.5l2.2.6a1.2,1.2,0,0,0,1.5-.8,1.3,1.3,0,0,0-.9-1.5Z" transform="translate(0.1 0)"/><path d="M4.4,254.6,2.2,254a1.2,1.2,0,0,0-1.5.8,1.3,1.3,0,0,0,.9,1.5h0a11.4,11.4,0,0,0,2.5.6,1.2,1.2,0,0,0,1.2-1.2,1.3,1.3,0,0,0-.9-1.1Z" transform="translate(0.1 0)"/><path d="M26,277.8l-.6-2.2a1.3,1.3,0,0,0-1.5-.9,1.3,1.3,0,0,0-.8,1.5l.6,2.2a1.3,1.3,0,0,0,1.5.9,1.2,1.2,0,0,0,.8-1.5Z" transform="translate(0.1 0)"/><path d="M16.9,243.8l-.6-2.2a1.3,1.3,0,0,0-1.5-.9,1.2,1.2,0,0,0-.8,1.5l.6,2.2a1.3,1.3,0,0,0,1.5.9A1.2,1.2,0,0,0,16.9,243.8Z" transform="translate(0.1 0)"/><path d="M37.6,417.6a4.8,4.8,0,0,1-3.9-5.7,5.4,5.4,0,0,1,.8-2.1l1.6-2-3.3-3.3-2,1.3a4.9,4.9,0,0,1-7.7-3.3l-.4-2.5H18.1l-.6,3.1a5,5,0,0,1-7.7,3.2l-2.6-1.8-3.3,3.3,1.6,2a5,5,0,0,1-1.1,6.9,4,4,0,0,1-2,.9l-2.4.5v4.6l2.5.4a5,5,0,0,1,4.2,5.6,4.8,4.8,0,0,1-.9,2.1l-1.3,2,3.3,3.3,2-1.6a5,5,0,0,1,6.9,1.1,4,4,0,0,1,.9,2l.5,2.4h4.6l.3-1.8a4.9,4.9,0,0,1,5.4-4.2,5.1,5.1,0,0,1,2.4,1l1.4,1.1,3.3-3.3-1.3-2a4.9,4.9,0,0,1,3.3-7.7l2.5-.4v-4.6Zm-17.2,6.2a3.5,3.5,0,0,1-3.5-3.4,3.5,3.5,0,0,1,3.5-3.5,3.5,3.5,0,0,1,3.4,3.5,3.4,3.4,0,0,1-3.4,3.4Z" transform="translate(0.1 0)" fill="#c7cac7"/><path d="M20.4,413.1a7.3,7.3,0,0,0,0,14.6,7.3,7.3,0,1,0,0-14.6Zm0,10.7a3.5,3.5,0,0,1-3.5-3.4,3.5,3.5,0,0,1,3.5-3.5,3.5,3.5,0,0,1,3.4,3.5A3.4,3.4,0,0,1,20.4,423.8Z" transform="translate(0.1 0)" fill="#556080"/><path d="M.7,80a.7.7,0,0,0-.7.7V88a.7.7,0,0,0,.7.6.6.6,0,0,0,.6-.6V80.7A.7.7,0,0,0,.7,80Z" transform="translate(0.1 0)"/><path d="M39.2,118.7H34.8v-28a.6.6,0,0,0-.1-.4l-3-3.3a.6.6,0,0,0-.9-.1h-.1l-3,3.3a.6.6,0,0,0-.1.4v6.6a.7.7,0,0,0,.7.6.9.9,0,0,0,.6-.6V91l2.3-2.6L33.5,91v27.7H28.9V99.9a.9.9,0,0,0-.8-.6.6.6,0,0,0-.5.6v18.8H23.8V106.5a.8.8,0,0,0-.2-.5l-3-3.3a.6.6,0,0,0-.9,0h0l-3,3.3a.8.8,0,0,0-.2.5v12.2H12.7V100a.6.6,0,0,0-.1-.4l-3-3.3a.7.7,0,0,0-1,0h0l-3,3.3-.2.4v5c0,.3.3.7.6.7a.8.8,0,0,0,.8-.6h0v-4.7l2.3-2.6,2.3,2.6v18.4H6.8V107.6A.9.9,0,0,0,6,107a.9.9,0,0,0-.6.6v11.1H1.3V90.6a.7.7,0,0,0-.6-.7.7.7,0,0,0-.7.7H0v28.7a.7.7,0,0,0,.7.7H39.2a.6.6,0,0,0,.6-.7A.6.6,0,0,0,39.2,118.7Zm-16.7,0H17.8v-12l2.3-2.6,2.4,2.6Z" transform="translate(0.1 0)"/><path d="M28.8,33.5a2.9,2.9,0,0,1,.1-1.6,3.5,3.5,0,0,0-.9-3.1l-2.3-2.4a.6.6,0,0,0-.9.9h0l.6.5a11.2,11.2,0,0,1-4.3,1.6.6.6,0,0,0-.5.6v1.6a3.3,3.3,0,0,0,1.1,2.5,2.6,2.6,0,0,1,.3,3.8,2.7,2.7,0,0,1-3.7.3,2.8,2.8,0,0,1-1-2,.5.5,0,0,0-.6-.6c-.3,0-.5.2-.5.6h0a3.8,3.8,0,0,0,7.6,0,4.2,4.2,0,0,0-1.3-3,1.9,1.9,0,0,1-.7-1.6V30.5a10.2,10.2,0,0,0,4.4-1.9l.9,1a1.9,1.9,0,0,1,.6,2,6.7,6.7,0,0,0-.1,2,.6.6,0,0,0,.6.5h0A.6.6,0,0,0,28.8,33.5Z" transform="translate(0.1 0)"/><path d="M18.3,31.6a2.1,2.1,0,0,1-.8,1.6.6.6,0,0,0,0,.8.5.5,0,0,0,.8.1h0a3.3,3.3,0,0,0,1.2-2.5V30a.6.6,0,0,0-.6-.6,9,9,0,0,1-4.7-2,.5.5,0,0,0-.8.1l-1.6,1.6a2.8,2.8,0,0,0-1,2.4A2.1,2.1,0,0,1,9,33.7a2.2,2.2,0,0,1-2.2-1.9v-.2a2,2,0,0,1,.6-1.4,2.3,2.3,0,0,1,1.2-.6,3.4,3.4,0,0,0,1.9-.9l2.1-2a.6.6,0,0,0,0-.8,9.4,9.4,0,0,1-1.9-4.2h1.6a.6.6,0,0,0,.6-.5.6.6,0,0,0-.6-.6H8.4a3.3,3.3,0,0,0-2.5,1.1,2.7,2.7,0,0,1-3.8.3,2.7,2.7,0,0,1-.3-3.7A2.7,2.7,0,0,1,5.6,18l.3.3a3.3,3.3,0,0,0,2.5,1.1h3.1a.6.6,0,0,0,.6-.6.6.6,0,0,0-.6-.5h-.8a12,12,0,0,1,1.5-3.7l1.1,1.1a.6.6,0,0,0,.8-.8L11.3,12a3.8,3.8,0,0,0-3.2-.9A4.1,4.1,0,0,1,3,8.1,4.1,4.1,0,0,1,6,3a4.1,4.1,0,0,1,5.1,3,3.7,3.7,0,0,1,0,2.1,3.3,3.3,0,0,0,1,3.1l2.3,2.3c.1.2.2.2.4.2s.3,0,.4-.2a.5.5,0,0,0,0-.8h0l-.5-.5a9.4,9.4,0,0,1,4.2-1.6.6.6,0,0,0,.6-.6V8.4a3.3,3.3,0,0,0-1.2-2.5A2.7,2.7,0,0,1,18,2.1a2.7,2.7,0,0,1,3.7-.3,2.6,2.6,0,0,1,1,2,.5.5,0,0,0,.6.6c.3,0,.5-.2.5-.6a3.8,3.8,0,1,0-7.6,0,4,4,0,0,0,1.3,3,2.1,2.1,0,0,1,.8,1.6V9.5a11.4,11.4,0,0,0-4.4,1.8l-1-.9a2.1,2.1,0,0,1-.6-2.1,5.4,5.4,0,0,0-4-6.5A5.3,5.3,0,0,0,1.8,5.7a5.5,5.5,0,0,0,4,6.6,5.7,5.7,0,0,0,2.6,0,1.9,1.9,0,0,1,2,.6l1,.9a10.1,10.1,0,0,0-1.9,4.5H8.4a2.1,2.1,0,0,1-1.6-.8,3.8,3.8,0,0,0-5.4-.4,3.7,3.7,0,0,0-.5,5.4,3.8,3.8,0,0,0,5.4.4l.5-.4a2.1,2.1,0,0,1,1.6-.8H9.5a10.6,10.6,0,0,0,1.9,4.5L9.7,27.8a2.1,2.1,0,0,1-1.3.7,3.1,3.1,0,0,0,.7,6.2,3.1,3.1,0,0,0,2.8-3.2,2.4,2.4,0,0,1,.7-1.6l1.2-1.3a11.1,11.1,0,0,0,4.5,1.9Z" transform="translate(0.1 0)"/><path d="M31.6,21.7a2.1,2.1,0,0,1,1.6.8,3.8,3.8,0,0,0,5.4.4,3.7,3.7,0,0,0,.5-5.4,3.8,3.8,0,0,0-5.4-.4l-.5.4a2.1,2.1,0,0,1-1.6.8H30.5a11.1,11.1,0,0,0-1.9-4.5L30.5,12a2.3,2.3,0,0,1,1.2-.6,2.6,2.6,0,0,0,2.2-3.1,2.3,2.3,0,0,0-.7-1.5A2.7,2.7,0,0,0,31.3,6h0a2.6,2.6,0,0,0-2.7,2.4A2.7,2.7,0,0,1,28,9.6l-1.8,1.8a10.2,10.2,0,0,0-4.4-1.9V8.3a2,2,0,0,1,.7-1.6.6.6,0,0,0,.1-.8h0a.6.6,0,0,0-.9,0h0a3.2,3.2,0,0,0-1.1,2.4V10a.6.6,0,0,0,.5.6,9.3,9.3,0,0,1,4.8,2,.6.6,0,0,0,.8,0l2.1-2.2a3.1,3.1,0,0,0,.9-1.9,1.6,1.6,0,0,1,1.6-1.3h0a1.5,1.5,0,0,1,1.5,1.5,1.6,1.6,0,0,1-.5,1.1,1.4,1.4,0,0,1-.8.5,3.4,3.4,0,0,0-1.9.9l-2.1,2.2a.6.6,0,0,0-.1.8,8.6,8.6,0,0,1,1.9,4.1H27.7a.6.6,0,0,0-.6.5.6.6,0,0,0,.6.6h3.9a3.3,3.3,0,0,0,2.5-1.1,2.7,2.7,0,0,1,3.8-.3,2.7,2.7,0,0,1,.3,3.7,2.7,2.7,0,0,1-3.8.3l-.3-.3a3.3,3.3,0,0,0-2.5-1.1H28.5a.6.6,0,0,0-.6.6.6.6,0,0,0,.6.5h.8a11.4,11.4,0,0,1-1.5,3.6l-1-1a.6.6,0,0,0-.9,0,.6.6,0,0,0,0,.8h0l2.9,2.8a3,3,0,0,0,3.1.9A4.3,4.3,0,0,1,37,32a4.1,4.1,0,0,1-3.1,5A3.8,3.8,0,0,1,30,35.9l-.4-.4a.5.5,0,0,0-.8-.1.6.6,0,0,0-.2.8l.5.6a5.4,5.4,0,1,0,7.7-7.7,5.7,5.7,0,0,0-5.1-1.4,2.1,2.1,0,0,1-2.1-.6l-.9-1a11.4,11.4,0,0,0,1.8-4.4Z" transform="translate(0.1 0)"/><path d="M17.7,14.7a2.6,2.6,0,0,0,0,5.2,2.6,2.6,0,0,0,0-5.2Zm0,4a1.4,1.4,0,1,1,0-2.8,1.4,1.4,0,0,1,1.4,1.4h0a1.4,1.4,0,0,1-1.4,1.4Z" transform="translate(0.1 0)"/><path d="M20.8,20.5a2.4,2.4,0,1,0,2.4-2.4h0A2.4,2.4,0,0,0,20.8,20.5Zm2.4-1.2a1.2,1.2,0,0,1,1.2,1.2,1.2,1.2,0,1,1-2.4,0,1.2,1.2,0,0,1,1.2-1.2Z" transform="translate(0.1 0)"/><path d="M16.1,23.3a2,2,0,0,0,2,2,1.9,1.9,0,0,0,2-2,2,2,0,0,0-2-2,2.1,2.1,0,0,0-2,2Zm2.9,0a.9.9,0,0,1-.9.9.9.9,0,0,1-.8-.9.8.8,0,0,1,.8-.8h0a.9.9,0,0,1,.9.8Z" transform="translate(0.1 0)"/><circle cx="4.9" cy="6.5" r="0.6"/><circle cx="5.3" cy="8.6" r="0.6"/><circle cx="6.9" cy="7.4" r="0.6"/><path d="M32.7,30a.6.6,0,1,0,.6.6h0A.6.6,0,0,0,32.7,30Z" transform="translate(0.1 0)"/><path d="M32.6,32.8a.6.6,0,0,0,.5.6.6.6,0,0,0,.6-.6.5.5,0,0,0-.6-.6h0C32.8,32.2,32.6,32.4,32.6,32.8Z" transform="translate(0.1 0)"/><circle cx="34.9" cy="31.5" r="0.6"/><circle cx="22.5" cy="25.8" r="0.6"/><circle cx="22.5" cy="14.7" r="0.6"/><circle cx="14.9" cy="21" r="0.6"/><path d="M10.5,453.2a.7.7,0,0,0,.9-.5h0a9.1,9.1,0,0,1,17.7,2.9c0,3.8-1.7,6.1-3.1,8s-1.9,2.5-1.9,3.9v.3H20.8V466a.7.7,0,0,0-.8-.8.7.7,0,0,0-.7.8v1.8H16v-.3c0-1.4-.9-2.6-1.9-3.9a14.8,14.8,0,0,1-2.7-5.1.8.8,0,0,0-1-.6.8.8,0,0,0-.6,1,18.2,18.2,0,0,0,3.1,5.6c.8,1.2,1.5,2.1,1.5,3a4.1,4.1,0,0,0,.1,1.1v6.6h0a5.8,5.8,0,0,0,1.9,3.3,5.7,5.7,0,0,0,7.2,0,5.9,5.9,0,0,0,2-3.3h0v-7.7c0-.9.7-1.8,1.6-3a13.6,13.6,0,0,0,3.4-8.9A10.6,10.6,0,0,0,10,452.2a.7.7,0,0,0,.5,1ZM20,478.3a4.1,4.1,0,0,1-3.7-2.3h7.4A4,4,0,0,1,20,478.3Zm4-3.9H16v-1.8h8Zm0-3.3H16v-1.8h8Z" transform="translate(0.1 0)" fill-rule="evenodd"/><path d="M20,443.6a.8.8,0,0,0,.8-.8h0v-2.1a.8.8,0,0,0-.8-.8.8.8,0,0,0-.7.8h0v2.1A.8.8,0,0,0,20,443.6Z" transform="translate(0.1 0)" fill-rule="evenodd"/><path d="M5.2,456.3h2a.8.8,0,0,0,.1-1.5H5.2a.7.7,0,0,0-.8.8.7.7,0,0,0,.8.7Z" transform="translate(0.1 0)" fill-rule="evenodd"/><path d="M23.6,457.1a.7.7,0,0,0-.8-.7H17.2a.7.7,0,0,0-.7.7.7.7,0,0,0,.7.8h2.1v1.8a.8.8,0,0,0,.7.8.8.8,0,0,0,.8-.8h0v-1.8h2a.7.7,0,0,0,.8-.8Z" transform="translate(0.1 0)" fill-rule="evenodd"/><path d="M10.4,447.1c.4.2.9.2,1.1-.1a.7.7,0,0,0,0-1l-1.4-1.5a.7.7,0,0,0-1.1.1.7.7,0,0,0,0,1Z" transform="translate(0.1 0)" fill-rule="evenodd"/><path d="M9,467.4l.5-.2,1.5-1.5a.8.8,0,1,0-1-1.2H9.9l-1.5,1.5a.8.8,0,0,0,0,1.1Z" transform="translate(0.1 0)" fill-rule="evenodd"/><path d="M29.1,447.3l.5-.2,1.5-1.5a.7.7,0,0,0-.1-1.1.7.7,0,0,0-1,0L28.5,446a.8.8,0,0,0,0,1.1l.6.2Z" transform="translate(0.1 0)" fill-rule="evenodd"/><path d="M29.1,464.6a.8.8,0,0,0,0,1.1l1.4,1.5c.4.2.9.2,1.1-.1a.7.7,0,0,0,0-1l-1.4-1.5A.8.8,0,0,0,29.1,464.6Z" transform="translate(0.1 0)" fill-rule="evenodd"/><path d="M32.8,456.3h2.1a.8.8,0,0,0,.8-.7.8.8,0,0,0-.8-.8H32.8a.8.8,0,0,0-.8.8.8.8,0,0,0,.8.7Z" transform="translate(0.1 0)" fill-rule="evenodd"/><path d="M20,462.1a.7.7,0,0,0-.7.7.7.7,0,0,0,.7.8.7.7,0,0,0,.8-.8A.7.7,0,0,0,20,462.1Z" transform="translate(0.1 0)" fill-rule="evenodd"/><path d="M11,455.6a.8.8,0,0,0-1.6,0,.8.8,0,0,0,1.6,0Z" transform="translate(0.1 0)" fill-rule="evenodd"/><path d="M16.1,508.5h9.6v6.7A4.9,4.9,0,0,1,20,519a4.8,4.8,0,0,1-3.9-3.8Z" transform="translate(0.1 0)" fill="#67e5dd" fill-rule="evenodd"/><path d="M20.9,485.7a9.8,9.8,0,0,1,9.8,9.9c0,6.8-5,9-5,11.9v1H16.1v-1c0-2.9-5-5.1-5-11.9a9.8,9.8,0,0,1,9.8-9.9Z" transform="translate(0.1 0)" fill="#fec96b" fill-rule="evenodd"/><path d="M20.9,485a10.5,10.5,0,0,0-10.1,7.2.8.8,0,0,0,1.5.5,9,9,0,0,1,17.6,2.9c0,3.8-1.7,6.1-3.1,8s-1.9,2.5-1.9,3.9v.3H21.7V506a.8.8,0,0,0-1.6,0v1.8H16.9v-.3c0-1.4-.9-2.6-1.9-3.9a15,15,0,0,1-2.8-5.1.7.7,0,0,0-.9-.6.8.8,0,0,0-.6,1,16,16,0,0,0,3,5.6c.9,1.2,1.6,2.1,1.6,3v7.7h.1a5.3,5.3,0,0,0,1.9,3.3,5.7,5.7,0,0,0,7.2,0,5.3,5.3,0,0,0,1.9-3.3h.1v-7.7c0-.9.7-1.8,1.6-3a14.1,14.1,0,0,0,3.4-8.9A10.6,10.6,0,0,0,20.9,485Zm-4,27.6h8v1.8h-8Zm8-1.5h-8v-1.8h8Zm-4,7.2a4.1,4.1,0,0,1-3.7-2.3h7.4A4.1,4.1,0,0,1,20.9,518.3Z" transform="translate(0.1 0)" fill-rule="evenodd"/><path d="M20.9,483.6a.9.9,0,0,0,.8-.8h0v-2.1a.8.8,0,0,0-1.6,0v2.1A.9.9,0,0,0,20.9,483.6Z" transform="translate(0.1 0)" fill-rule="evenodd"/><path d="M8.1,494.8H6a.8.8,0,0,0-.8.8.8.8,0,0,0,.8.7H8.1a.8.8,0,0,0,.8-.7.8.8,0,0,0-.8-.8Z" transform="translate(0.1 0)" fill-rule="evenodd"/><path d="M24.5,497.1a.8.8,0,0,0-.8-.7H18.1a.8.8,0,0,0-.8.7.8.8,0,0,0,.8.8h2v1.8a.8.8,0,0,0,1.6,0h0v-1.8h2a.8.8,0,0,0,.8-.8Z" transform="translate(0.1 0)" fill-rule="evenodd"/><path d="M11.3,487.1a.9.9,0,0,0,1.1-.1.9.9,0,0,0,0-1l-1.5-1.5a.8.8,0,0,0-1.1-.1.9.9,0,0,0-.1,1.1.1.1,0,0,1,.1.1Z" transform="translate(0.1 0)" fill-rule="evenodd"/><path d="M10.8,504.6l-1.5,1.5a.7.7,0,0,0,.1,1.1.9.9,0,0,0,1,0l1.5-1.5a.9.9,0,0,0-.1-1.1.7.7,0,0,0-1,0Z" transform="translate(0.1 0)" fill-rule="evenodd"/><path d="M29.9,487.3l.6-.2,1.5-1.5a.8.8,0,0,0-.1-1.1.7.7,0,0,0-1,0L29.4,486a.8.8,0,0,0,0,1.1l.5.2Z" transform="translate(0.1 0)" fill-rule="evenodd"/><path d="M31,504.6a.8.8,0,0,0-1.1.1.9.9,0,0,0,0,1l1.5,1.5a.8.8,0,0,0,1.1-1.1Z" transform="translate(0.1 0)" fill-rule="evenodd"/><path d="M35.8,494.8H33.7a.8.8,0,0,0-.8.8.8.8,0,0,0,.8.7h2.1a.7.7,0,0,0,.7-.7.7.7,0,0,0-.7-.8Z" transform="translate(0.1 0)" fill-rule="evenodd"/><path d="M20.9,502.1a.8.8,0,0,0-.8.7.8.8,0,0,0,1.6,0A.8.8,0,0,0,20.9,502.1Z" transform="translate(0.1 0)" fill-rule="evenodd"/><path d="M11.1,496.3a.8.8,0,0,0,.8-.7.8.8,0,0,0-.8-.8.7.7,0,0,0-.8.8A.7.7,0,0,0,11.1,496.3Z" transform="translate(0.1 0)" fill-rule="evenodd"/></svg>