<svg xmlns="http://www.w3.org/2000/svg" width="512" height="512" viewBox="0 0 512 512"><title>co-faq</title><path d="M286,184H70a60,60,0,0,0-60,60V398a60,60,0,0,0,60,60h64.1L178,502V458H286a60,60,0,0,0,60-60V244A60,60,0,0,0,286,184Z" fill="#c7eaff"/><path d="M178,512a10.1,10.1,0,0,1-7.1-2.9l-41-41.1H70A70.1,70.1,0,0,1,0,398V244a70.1,70.1,0,0,1,70-70H171a10,10,0,0,1,0,20H70a50,50,0,0,0-50,50V398a50,50,0,0,0,50,50h65a10.2,10.2,0,0,1,9.2,6L168,477.9V458a10,10,0,0,1,10-10H286a50,50,0,0,0,50-50V329a10,10,0,0,1,20,0v69a70.1,70.1,0,0,1-70,70H188v34a9.9,9.9,0,0,1-6.2,9.2A8.4,8.4,0,0,1,178,512Z"/><path d="M366.7,10H341.3A135.3,135.3,0,0,0,206,145.3h0A135.4,135.4,0,0,0,341.3,280.7h25.4a134.6,134.6,0,0,0,39.8-6L448,316.3V253.5a135,135,0,0,0,54-108.2h0A135.3,135.3,0,0,0,366.7,10Z" fill="#ffbc53"/><path d="M448,326.3a10.2,10.2,0,0,1-7.1-3L403.5,286a146.8,146.8,0,0,1-36.8,4.7H341.3c-80.1,0-145.3-65.2-145.3-145.4S261.2,0,341.3,0h25.4C446.8,0,512,65.2,512,145.3a143.4,143.4,0,0,1-15.8,66A146.4,146.4,0,0,1,458,258.4v57.9a10.2,10.2,0,0,1-10,10Zm-41.5-61.6a9.9,9.9,0,0,1,7,3L438,292.1V253.5a10.1,10.1,0,0,1,4-8A125.3,125.3,0,0,0,366.7,20H341.3A125.4,125.4,0,0,0,216,145.3c0,69.2,56.2,125.4,125.3,125.4h25.4a127.2,127.2,0,0,0,36.8-5.5A10.5,10.5,0,0,1,406.5,264.7Z"/><path d="M356.8,186.8a10,10,0,0,1-10-10V152.7a18.9,18.9,0,0,1,14.9-18.5,22.3,22.3,0,0,0-3.3-44.1,22,22,0,0,0-16.8,6,21.8,21.8,0,0,0-7.1,16.3,10,10,0,0,1-20,0,42.1,42.1,0,0,1,45.3-42.2,42.3,42.3,0,0,1,7,83.3v23.3A10,10,0,0,1,356.8,186.8Z"/><path d="M356.8,226.3a10,10,0,0,1-7.1-17,10,10,0,0,1,17.1,7,10.3,10.3,0,0,1-2.9,7.1A10.1,10.1,0,0,1,356.8,226.3Z"/><path d="M275,330H64a10,10,0,0,1,0-20H275a10,10,0,0,1,0,20Z"/><path d="M275,386a9.9,9.9,0,1,1,7.1-2.9A10.5,10.5,0,0,1,275,386Z"/><path d="M235.7,386H64a10,10,0,0,1,0-20H235.7a10,10,0,1,1,0,20Z"/><path d="M210,274H64a10,10,0,0,1,0-20H210a10,10,0,0,1,0,20Z"/></svg>