<svg xmlns="http://www.w3.org/2000/svg" width="512" height="511.8" viewBox="0 0 512 511.8"><title>co-link</title><path d="M341.5,341.5l48.6-73.6-48.6-12.5A133.5,133.5,0,0,0,309,203a130.9,130.9,0,0,0-52.4-32.5l-.6.6-59.2-2.3-26.3,1.7A132.3,132.3,0,0,0,118.1,203L39.5,281.6a134.8,134.8,0,0,0,0,190.7c54.1,54.1,139.6,51.4,190.9,0L309,393.9A134.2,134.2,0,0,0,341.5,341.5ZM177.4,419.3a60,60,0,1,1-84.9-84.9l78-77.8,42.6,42.2L256,340.9Z" transform="translate(0 -0.1)" fill="#4a696f"/><path d="M309,393.9l-78.6,78.4c-51.3,51.4-136.8,54.1-190.9,0l53-53a60,60,0,0,0,84.9,0L256,340.9l-42.9-42.1L309,203a133.5,133.5,0,0,1,32.5,52.4l48.6,12.5-48.6,73.6A134.2,134.2,0,0,1,309,393.9Z" transform="translate(0 -0.1)" fill="#384949"/><path d="M415.1,436.3l-21.2-21.2a15,15,0,0,1,21.2-21.2l21.2,21.2a15,15,0,1,1-21.2,21.2Z" transform="translate(0 -0.1)" fill="#d2c5c2"/><path d="M96.9,118.1,75.7,96.9A15,15,0,0,1,96.9,75.7l21.2,21.2a15,15,0,0,1-21.2,21.2Z" transform="translate(0 -0.1)" fill="#dfd7d5"/><path d="M444.4,306.5a14.9,14.9,0,0,1,18.3-10.6l29,7.7a15,15,0,0,1-7.7,29l-29-7.8A14.9,14.9,0,0,1,444.4,306.5Z" transform="translate(0 -0.1)" fill="#d2c5c2"/><path d="M9.7,190A14.9,14.9,0,0,1,28,179.4l29,7.8a15,15,0,0,1-7.7,28.9l-29-7.7A15,15,0,0,1,9.7,190Z" transform="translate(0 -0.1)" fill="#dfd7d5"/><path d="M303.6,491.7l-7.7-29a15,15,0,1,1,28.9-7.7l7.8,29a15,15,0,0,1-29,7.7Z" transform="translate(0 -0.1)" fill="#d2c5c2"/><path d="M187.2,57l-7.8-29a15,15,0,0,1,29-7.7l7.7,29A15,15,0,0,1,187.2,57Z" transform="translate(0 -0.1)" fill="#dfd7d5"/><path d="M472.5,39.7a134.8,134.8,0,0,0-190.9,0L203,118.1a134.2,134.2,0,0,0-32.5,52.4,136.3,136.3,0,0,0,0,86.1,135.1,135.1,0,0,0,84.9,84.9l.6-.6a60.3,60.3,0,0,0,0-84.9,60.3,60.3,0,0,1,0-84.9l78.6-78.4a59.1,59.1,0,0,1,42.5-17.4c.4-.4,4-.2,4.9.2,11.4,0,26.5,6.2,37.5,17.2a60.3,60.3,0,0,1,0,84.9l-78,77.8a136.3,136.3,0,0,1,0,86.1A137,137,0,0,0,393.9,309l78.6-78.4C525.2,178,525.2,92.3,472.5,39.7Z" transform="translate(0 -0.1)" fill="#ffd400"/><path d="M256,340.9l-.6.6A132.6,132.6,0,0,1,203,309l53-53A60.3,60.3,0,0,1,256,340.9Z" transform="translate(0 -0.1)" fill="#ff9f00"/><path d="M472.5,230.6,393.9,309a137,137,0,0,1-52.4,32.5,136.3,136.3,0,0,0,0-86.1l78-77.8a60.3,60.3,0,0,0,0-84.9l53-53C525.2,92.3,525.2,178,472.5,230.6Z" transform="translate(0 -0.1)" fill="#ff9f00"/></svg>