<?xml version="1.0" encoding="utf-8"?>
<!-- Generator: Adobe Illustrator 23.0.0, SVG Export Plug-In . SVG Version: 6.00 Build 0)  -->
<svg version="1.1" id="Layer_1" xmlns="http://www.w3.org/2000/svg" xmlns:xlink="http://www.w3.org/1999/xlink" x="0px" y="0px"
	 viewBox="0 0 40 520" style="enable-background:new 0 0 40 520;" xml:space="preserve">
<style type="text/css">
	.st0{fill:none;}
	.st1{fill:#FD6930;}
	.st2{fill:#FD5426;}
	.st3{fill:#FFEEE7;}
	.st4{fill:#A79BA7;}
	.st5{fill:#7A6D79;}
	.st6{fill:#918291;}
	.st7{fill:#685E68;}
	.st8{fill:#C7EAFF;}
	.st9{fill:#FFBC53;}
	.st10{fill:#4A696F;}
	.st11{fill:#384949;}
	.st12{fill:#D2C5C2;}
	.st13{fill:#DFD7D5;}
	.st14{fill:#FFD400;}
	.st15{fill:#FF9F00;}
	.st16{fill:#FFDB56;}
	.st17{fill:#FBA806;}
	.st18{fill:#F77935;}
	.st19{fill:#D9510D;}
	.st20{fill:#894BA2;}
	.st21{fill:#763794;}
	.st22{fill:#FF2261;}
	.st23{fill:#B7305D;}
	.st24{fill:#99F5D2;}
	.st25{fill:#69D8E4;}
	.st26{fill:#C7CAC7;}
	.st27{fill:#556080;}
	.st28{fill-rule:evenodd;clip-rule:evenodd;}
	.st29{fill-rule:evenodd;clip-rule:evenodd;fill:#67E5DD;}
	.st30{fill-rule:evenodd;clip-rule:evenodd;fill:#FEC96B;}
</style>
<rect class="st0" width="40" height="520"/>
<g transform="translate(0 200)">
	<path class="st1" d="M11.6,0.6c6.1,0,11,4.9,11,11c0,2.7-1,5.2-2.7,7.3c-0.2,0.2-0.2,0.4-0.1,0.7c0.3,0.7,0.8,1.4,1.2,2
		c0.1,0.2,0.1,0.4-0.1,0.5c-0.1,0-0.1,0.1-0.2,0.1c-1.2,0-2.4-0.2-3.5-0.8c-0.2-0.1-0.4-0.1-0.5,0c-1.5,0.8-3.2,1.2-5,1.3
		c-6.1,0-11-4.8-11.1-10.9C0.6,5.6,5.5,0.6,11.6,0.6z"/>
	<path class="st2" d="M21,21.4c0.1,0.2,0.1,0.4-0.1,0.5c-0.1,0-0.1,0.1-0.2,0.1c-0.6,0.1-1.3,0-1.9-0.2h0.1c0.2,0,0.3-0.2,0.3-0.4
		c0-0.1,0-0.1-0.1-0.2c-0.5-0.6-0.9-1.3-1.2-2c-0.1-0.2-0.1-0.5,0.1-0.7c4-4.5,3.6-11.5-1-15.5c-1.5-1.3-3.3-2.2-5.2-2.5
		c6.1,0.2,10.8,5.2,10.7,11.2c-0.1,2.6-1,5-2.7,7c-0.2,0.2-0.2,0.4-0.1,0.7C20,20.2,20.5,20.8,21,21.4z"/>
	<circle class="st3" cx="17.2" cy="11.6" r="1.5"/>
	<circle class="st3" cx="11.6" cy="11.6" r="1.5"/>
	<circle class="st3" cx="5.9" cy="11.6" r="1.5"/>
	<path class="st4" d="M38.3,8.1c-0.6-1.5-1.6-2.7-2.8-3.7c-1.4-1.1-3.3-2.2-5-1.5c-0.5,0.2-0.9,0.6-1.2,1c-0.2,0.3-0.4,0.6-0.5,1
		c0,0.1-1.2,3.7-1.6,5.5c-0.4,0.9-0.1,2,0.7,2.7c0.3,0.2,0.6,0.4,0.9,0.6c0.8,0.4,1.7,0.8,2.5,1.1l0.4,0.1l1,0.4l-0.4,1
		c-1.9,5.5-5.1,10.4-9.3,14.4l-0.7,0.7l-0.9-0.8c-0.6-0.7-1.3-1.4-2.1-2c-1-1.1-2.6-1.1-3.7-0.1c0,0,0,0,0,0
		c-1.6,1.2-3.1,2.5-4.5,3.8c-1.5,1.5-1.4,3,0.1,4.6c1.3,1.3,3,2.2,4.8,2.5c2.5,0.3,5.1-0.3,7.2-1.6c1.8-1,3.4-2.2,4.9-3.5l2.1-2
		c3.7-4.1,6.5-9,7.9-14.3C39,14.8,39.5,11.1,38.3,8.1z"/>
	<path class="st5" d="M32.6,15.2c1.2-3.4,2.2-7,3.1-10.6l-0.2-0.2c-1.2-0.9-2.9-2-4.5-1.6c-1.2,0.3-2.1,1.2-2.4,2.4
		c-0.5,1.7-1.1,3.5-1.5,5.3c-0.5,1.3,0.2,2.7,1.5,3.2c0,0,0,0,0,0c0.9,0.5,1.9,0.9,2.9,1.3L32.6,15.2z"/>
	<path class="st5" d="M22.2,31.3c-1.2,1.2-2.5,2.5-3.8,3.7c-1.4,1.3-3,2.6-4.6,3.7c-1-0.4-1.9-1.1-2.7-1.9c-1.5-1.6-1.6-3.1-0.1-4.6
		c1.4-1.4,2.9-2.7,4.5-3.8c1-1,2.7-1,3.7,0.1c0,0,0,0,0,0c0.7,0.6,1.4,1.3,2.1,2L22.2,31.3z"/>
	<path class="st6" d="M38.1,17.9c-2.5,8.5-7.2,15.3-15,19.8c-2.1,1.3-4.7,1.9-7.2,1.6c-1.8-0.3-3.5-1.2-4.8-2.5
		c-0.6-0.5-0.9-1.2-1.1-1.9l0.1,0.1c1.3,1.3,3,2.2,4.8,2.5c2.5,0.3,5.1-0.3,7.2-1.6c7.7-4.5,12.4-11.4,15-19.8
		c0.9-3.1,1.5-6.8,0.2-9.8l0-0.1c0.4,0.6,0.8,1.2,1.1,1.9C39.5,11.1,39,14.8,38.1,17.9z"/>
	<path class="st7" d="M14.8,37.5c-1.8-0.3-3.5-1.2-4.8-2.5L10,34.9v0l0,0.1c0,0.1,0.1,0.3,0.1,0.4c0.1,0.2,0.2,0.5,0.4,0.7
		c0.1,0.2,0.3,0.4,0.5,0.6c0.5,0.6,1.1,1.1,1.8,1.5c0.3,0.2,0.6,0.3,0.9,0.5l0.2,0.1l0,0c0.5-0.4,1-0.8,1.5-1.1
		C15.2,37.5,15,37.5,14.8,37.5z"/>
	<path d="M11.7,23.1c1.8,0,3.6-0.5,5.3-1.3h0c1.2,0.6,2.5,0.9,3.8,0.8c0.5-0.1,0.9-0.5,0.8-1.1c0-0.2-0.1-0.3-0.2-0.5
		c-0.5-0.6-0.9-1.2-1.2-1.9c0,0,0,0,0,0C24,15,24.1,8.7,20.5,4.3C20.3,4,20,4,19.7,4.2c-0.3,0.2-0.3,0.6-0.1,0.8c0,0,0,0,0,0
		c3.2,3.9,3.1,9.6-0.3,13.4c-0.3,0.4-0.4,0.9-0.2,1.3c0.3,0.6,0.6,1.2,1.1,1.8c-1-0.1-1.9-0.3-2.8-0.8c-0.3-0.2-0.7-0.1-1.1,0
		c-4,2.1-8.9,1.4-12.1-1.8c-2-1.9-3.1-4.5-3.2-7.3C1.1,6,5.7,1.3,11.4,1.2c2.3,0,4.5,0.7,6.3,2c0.3,0.2,0.6,0.1,0.8-0.1
		c0.2-0.3,0.1-0.6-0.1-0.8C13.3-1.5,6.1-0.5,2.3,4.6c-3.5,4.7-3,11.2,1.2,15.2c2.1,2.1,5,3.3,8,3.3L11.7,23.1z"/>
	<path d="M15.2,11.6c0,1.1,0.9,2.1,2.1,2.1s2.1-0.9,2.1-2.1s-0.9-2.1-2.1-2.1l0,0C16.1,9.5,15.2,10.4,15.2,11.6z M18.1,11.6
		c0,0.5-0.4,0.9-0.9,0.9c-0.5,0-0.9-0.4-0.9-0.9c0-0.5,0.4-0.9,0.9-0.9l0,0C17.7,10.7,18.1,11.1,18.1,11.6L18.1,11.6L18.1,11.6z"/>
	<path d="M9.5,11.6c0,1.1,0.9,2.1,2.1,2.1s2.1-0.9,2.1-2.1s-0.9-2.1-2.1-2.1l0,0C10.4,9.5,9.5,10.4,9.5,11.6z M12.5,11.6
		c0,0.5-0.4,0.9-0.9,0.9c-0.5,0-0.9-0.4-0.9-0.9c0-0.5,0.4-0.9,0.9-0.9S12.5,11.1,12.5,11.6L12.5,11.6z"/>
	<path d="M3.8,11.6c0,1.1,0.9,2.1,2.1,2.1s2.1-0.9,2.1-2.1c0-1.1-0.9-2.1-2.1-2.1c0,0,0,0,0,0C4.7,9.5,3.8,10.4,3.8,11.6z M6.8,11.6
		c0,0.5-0.4,0.9-0.9,0.9c-0.5,0-0.9-0.4-0.9-0.9s0.4-0.9,0.9-0.9S6.8,11.1,6.8,11.6z"/>
	<path d="M39,13.1c-0.3,0-0.6,0.2-0.6,0.5c-0.2,1.4-0.4,2.7-0.9,4c-1.5,5.2-4.1,10-7.8,14c-1,1-2,2-3.2,2.9
		c-0.4,0.3-0.8,0.6-1.2,0.9c-0.8,0.6-1.7,1.1-2.6,1.7c-2,1.3-4.4,1.8-6.8,1.5c-0.3-0.1-0.6-0.1-0.9-0.2c1.3-1,2.5-2,3.7-3.1
		c1.4-1.3,2.7-2.5,3.9-3.7c0,0,0,0,0,0l0,0l0.7-0.7c4.2-4.1,7.5-9,9.4-14.6c0,0,0.4-1,0.4-1c1.1-3.1,2-6.3,2.9-9.7
		c0.7,0.8,1.3,1.7,1.7,2.7c0.3,0.7,0.5,1.4,0.6,2.2c0,0.3,0.3,0.5,0.7,0.5c0,0,0,0,0,0c0.3,0,0.5-0.3,0.5-0.6c0,0,0,0,0,0
		c-0.1-0.8-0.3-1.7-0.7-2.5c-0.1-0.2-0.2-0.4-0.3-0.5c-0.8-1.5-2-2.9-3.4-3.9c-1.4-1.1-3.3-1.8-5-1.1c-0.6,0.3-1.1,0.7-1.4,1.2
		c-0.2,0.3-0.4,0.7-0.6,1.1c0,0.1-1.2,3.8-1.6,5.6c-0.4,1.2-0.1,2.4,0.9,3.2c0.3,0.2,0.6,0.5,1,0.6c0.8,0.4,1.7,0.8,2.6,1.1l0.4,0.1
		h0l0.5,0.2L31.6,16c-1.9,5.4-5,10.2-9.1,14.1l0,0l-0.3,0.3l-0.6-0.6c-0.6-0.7-1.3-1.3-1.9-1.9c-1.2-1.2-3.2-1.3-4.4-0.1
		c-1.6,1.2-3.2,2.5-4.6,3.9c-1.7,1.7-1.7,3.6,0.1,5.4c0.6,0.6,1.3,1.2,2.1,1.6l0,0c0.3,0.2,0.5,0.3,0.8,0.4h0
		c0.7,0.3,1.4,0.5,2.2,0.6c0.5,0.1,1,0.1,1.5,0.1c2.2-0.1,4.3-0.7,6.1-1.8c0.9-0.5,1.8-1.1,2.7-1.7c0.4-0.3,0.9-0.6,1.3-1
		c2.8-2.3,5.3-5.1,7.2-8.2c0.4-0.6,0.8-1.3,1.1-2c1.2-2.3,2.2-4.8,3-7.3c0.4-1.4,0.7-2.8,0.9-4.3C39.5,13.5,39.3,13.2,39,13.1
		L39,13.1z M31.8,14.2c-0.8-0.3-1.5-0.6-2.2-0.9c-0.5-0.2-0.9-0.5-1.3-0.8c-0.6-0.5-0.8-1.3-0.5-2.1c0.4-1.7,1.5-5.2,1.6-5.4
		c0.1-0.3,0.2-0.6,0.4-0.8c0.2-0.3,0.6-0.6,0.9-0.8c1.5-0.7,3.2,0.4,4.4,1.3l0,0c-0.8,3.3-1.8,6.6-2.8,9.6
		C32.1,14.3,31.9,14.3,31.8,14.2z M13.3,37.8L13.3,37.8c-0.7-0.4-1.3-0.8-1.8-1.4c-1.3-1.4-1.4-2.5-0.1-3.8c1.4-1.4,2.9-2.6,4.5-3.8
		c0.8-0.8,2.1-0.8,2.9,0c0,0,0.1,0.1,0.1,0.1c0.6,0.5,2.5,2.4,2.5,2.4c-1,1-2.1,2.1-3.4,3.2c-1.3,1.2-2.8,2.4-4.3,3.5
		C13.6,37.9,13.4,37.9,13.3,37.8z"/>
</g>
<g transform="translate(0 360)">
	<path class="st8" d="M22.3,14.4H5.5c-2.6,0-4.7,2.1-4.7,4.7v12c0,2.6,2.1,4.7,4.7,4.7h5l3.4,3.4v-3.4h8.4c2.6,0,4.7-2.1,4.7-4.7
		v-12C27,16.5,24.9,14.4,22.3,14.4C22.3,14.4,22.3,14.4,22.3,14.4z"/>
	<path d="M13.9,40c-0.2,0-0.4-0.1-0.6-0.2l-3.2-3.2H5.5c-3,0-5.5-2.4-5.5-5.5v-12c0-3,2.5-5.5,5.5-5.5h7.9c0.4,0,0.8,0.3,0.8,0.8
		c0,0.4-0.3,0.8-0.8,0.8c0,0,0,0,0,0H5.5c-2.2,0-3.9,1.7-3.9,3.9l0,0v12c0,2.2,1.7,3.9,3.9,3.9c0,0,0,0,0,0h5.1
		c0.3,0,0.6,0.2,0.7,0.5l1.9,1.9v-1.6c0-0.4,0.3-0.8,0.8-0.8c0,0,0,0,0,0h8.4c2.2,0,3.9-1.7,3.9-3.9c0,0,0,0,0,0v-5.4
		c0-0.4,0.3-0.8,0.8-0.8s0.8,0.3,0.8,0.8v5.4c0,3-2.5,5.5-5.5,5.5h-7.7v2.7c0,0.3-0.2,0.6-0.5,0.7C14.1,40,14,40,13.9,40z"/>
	<path class="st9" d="M28.6,0.8h-2c-5.8,0-10.6,4.7-10.6,10.6c0,0,0,0,0,0l0,0c0,5.8,4.7,10.6,10.6,10.6h2c1.1,0,2.1-0.2,3.1-0.5
		l3.2,3.3v-4.9c2.7-2,4.2-5.1,4.2-8.5l0,0C39.2,5.5,34.5,0.8,28.6,0.8z"/>
	<path d="M35,25.5c-0.2,0-0.4-0.1-0.6-0.2l-2.9-2.9c-0.9,0.2-1.9,0.4-2.9,0.4h-2c-6.3,0-11.4-5.1-11.4-11.4S20.4,0,26.7,0h2
		C34.9,0,40,5.1,40,11.4c0,1.8-0.4,3.6-1.2,5.2c-0.7,1.4-1.7,2.7-3,3.7v4.5C35.8,25.1,35.4,25.5,35,25.5L35,25.5z M31.8,20.7
		c0.2,0,0.4,0.1,0.5,0.2l1.9,1.9v-3c0-0.2,0.1-0.5,0.3-0.6c4.3-3.2,5.2-9.4,2-13.7c-1.9-2.5-4.8-3.9-7.8-3.9h-2
		c-5.4,0-9.8,4.4-9.8,9.8c0,5.4,4.4,9.8,9.8,9.8h2c1,0,1.9-0.1,2.9-0.4C31.6,20.7,31.7,20.7,31.8,20.7L31.8,20.7z"/>
	<path d="M27.9,14.6c-0.4,0-0.8-0.3-0.8-0.8c0,0,0,0,0,0v-1.9c0-0.7,0.5-1.3,1.2-1.4c0.9-0.2,1.5-1.1,1.4-2.1
		C29.4,7.7,28.8,7.1,28,7c-1-0.1-1.8,0.7-1.9,1.6c0,0,0,0.1,0,0.1c0,0.4-0.3,0.8-0.8,0.8s-0.8-0.3-0.8-0.8c0-1.8,1.5-3.3,3.3-3.3
		c1.8,0,3.3,1.5,3.3,3.3c0,1.5-1,2.9-2.5,3.2v1.8C28.7,14.2,28.3,14.6,27.9,14.6C27.9,14.6,27.9,14.6,27.9,14.6z"/>
	<path d="M27.9,17.7c-0.4,0-0.8-0.4-0.8-0.8c0-0.4,0.4-0.8,0.8-0.8c0.4,0,0.8,0.3,0.8,0.8c0,0.2-0.1,0.4-0.2,0.6
		C28.3,17.6,28.1,17.7,27.9,17.7z"/>
	<path d="M21.5,25.8H5c-0.4,0-0.8-0.3-0.8-0.8s0.3-0.8,0.8-0.8h16.5c0.4,0,0.8,0.3,0.8,0.8S21.9,25.8,21.5,25.8z"/>
	<path d="M21.5,30.2c-0.4,0-0.8-0.4-0.8-0.8c0-0.4,0.4-0.8,0.8-0.8c0.4,0,0.8,0.4,0.8,0.8c0,0.2-0.1,0.4-0.2,0.5
		C21.9,30.1,21.7,30.2,21.5,30.2z"/>
	<path d="M18.4,30.2H5c-0.4,0-0.8-0.3-0.8-0.8s0.3-0.8,0.8-0.8h13.4c0.4,0,0.8,0.3,0.8,0.8S18.9,30.2,18.4,30.2z"/>
	<path d="M16.4,21.4H5c-0.4,0-0.8-0.3-0.8-0.8c0-0.4,0.3-0.8,0.8-0.8c0,0,0,0,0,0h11.4c0.4,0,0.8,0.3,0.8,0.8S16.8,21.4,16.4,21.4
		C16.4,21.4,16.4,21.4,16.4,21.4z"/>
</g>
<g transform="translate(0 280)">
	<path class="st10" d="M26.7,26.7l3.8-5.8l-3.8-1c-0.5-1.5-1.4-3-2.5-4.1c-1.1-1.2-2.6-2-4.1-2.5l0,0l-4.6-0.2l-2.1,0.1
		c-1.5,0.5-3,1.4-4.1,2.5L3.1,22c-4.2,4-4.3,10.7-0.3,14.9c4,4.2,10.7,4.3,14.9,0.3c0.1-0.1,0.2-0.2,0.3-0.3l6.1-6.1
		C25.3,29.6,26.2,28.2,26.7,26.7L26.7,26.7z M13.9,32.8c-1.8,1.8-4.8,1.8-6.6,0c-1.8-1.8-1.8-4.8,0-6.6l6.1-6.1l3.3,3.3l3.4,3.3
		L13.9,32.8z"/>
	<path class="st11" d="M24.2,30.8L18,36.9C13.9,41,7.2,41,3.1,36.9c0,0,0,0,0,0l4.1-4.1c1.8,1.8,4.8,1.8,6.6,0c0,0,0,0,0,0l6.1-6.1
		l-3.4-3.3l7.5-7.5c1.2,1.1,2,2.6,2.5,4.1l3.8,1l-3.8,5.8C26.2,28.2,25.3,29.6,24.2,30.8z"/>
	<path class="st12" d="M32.4,34.1l-1.7-1.7c-0.4-0.5-0.4-1.2,0-1.7c0.5-0.4,1.2-0.4,1.6,0l1.7,1.7c0.5,0.4,0.5,1.2,0,1.7
		S33,34.6,32.4,34.1C32.5,34.1,32.5,34.1,32.4,34.1z"/>
	<path class="st13" d="M7.6,9.2L5.9,7.6C5.5,7.1,5.5,6.4,6,5.9c0.5-0.4,1.2-0.4,1.6,0l1.7,1.7c0.4,0.5,0.4,1.2-0.1,1.7
		C8.7,9.6,8,9.6,7.6,9.2z"/>
	<path class="st12" d="M34.7,23.9c0.2-0.6,0.8-1,1.4-0.8c0,0,0,0,0,0l2.3,0.6c0.6,0.2,1,0.8,0.8,1.5c-0.2,0.6-0.8,1-1.4,0.8
		l-2.3-0.6C34.9,25.2,34.6,24.6,34.7,23.9C34.7,24,34.7,23.9,34.7,23.9L34.7,23.9z"/>
	<path class="st13" d="M0.8,14.8c0.2-0.6,0.8-1,1.4-0.8c0,0,0,0,0,0l2.3,0.6c0.6,0.2,0.9,0.9,0.7,1.5C5,16.7,4.4,17,3.9,16.9
		l-2.3-0.6C1,16.1,0.6,15.5,0.8,14.8C0.8,14.8,0.8,14.8,0.8,14.8L0.8,14.8z"/>
	<path class="st12" d="M23.7,38.4l-0.6-2.3c-0.2-0.6,0.1-1.3,0.7-1.5s1.3,0.1,1.5,0.7c0,0.1,0,0.1,0,0.2l0.6,2.3
		c0.1,0.6-0.2,1.3-0.9,1.4C24.5,39.4,23.9,39,23.7,38.4L23.7,38.4z"/>
	<path class="st13" d="M14.6,4.4L14,2.2c-0.2-0.6,0.2-1.3,0.8-1.5c0.6-0.2,1.3,0.2,1.5,0.8c0,0,0,0,0,0.1l0.6,2.3
		C17,4.5,16.6,5.1,16,5.2C15.4,5.3,14.8,5,14.6,4.4L14.6,4.4z"/>
	<path class="st14" d="M36.9,3.1C32.8-1,26.2-1,22,3.1c0,0,0,0,0,0l-6.1,6.1c-1.2,1.2-2,2.6-2.5,4.1c-1.9,5.5,1.1,11.5,6.6,13.4l0,0
		c1.8-1.8,1.8-4.8,0-6.6s-1.8-4.8,0-6.6l6.1-6.1c0.9-0.9,2.1-1.4,3.3-1.4c0.1,0,0.3,0,0.4,0C31,6,32,6.4,32.8,7.2
		c1.8,1.8,1.8,4.8,0,6.6L26.7,20c0.7,2.2,0.7,4.5,0,6.7c1.5-0.5,2.9-1.4,4.1-2.5l6.1-6.1C41,13.9,41,7.2,36.9,3.1z"/>
	<path class="st15" d="M20,26.6L20,26.6c-1.6-0.5-3-1.3-4.1-2.5L20,20C21.8,21.8,21.8,24.8,20,26.6z"/>
	<path class="st15" d="M36.9,18l-6.1,6.1c-1.2,1.1-2.6,2-4.1,2.5c0.7-2.2,0.7-4.5,0-6.7l6.1-6.1c1.8-1.8,1.8-4.8,0-6.6l4.1-4.1
		C41.1,7.2,41.1,13.9,36.9,18z"/>
</g>
<g transform="translate(0 120)">
	<path class="st16" d="M9.1,39.3h3V20l-3-3.3l-3,3.3v19.3L9.1,39.3z"/>
	<path class="st17" d="M9.2,16.8v22.5h2.9V20L9.2,16.8z"/>
	<path class="st18" d="M20.1,39.3h3V26.5l-3-3.3l-3,3.3v12.9L20.1,39.3z"/>
	<path class="st19" d="M20.1,23.2v16.2h3V26.5L20.1,23.2L20.1,23.2z"/>
	<path class="st20" d="M31.2,39.3h3V10.7l-3-3.3l-3,3.3v28.6L31.2,39.3z"/>
	<path class="st21" d="M31.2,39.3h3V10.7l-3-3.3V39.3z"/>
	<path d="M0.7,8.6C1,8.6,1.3,8.3,1.3,8l0,0V0.7C1.3,0.3,1,0,0.7,0C0.3,0,0,0.3,0,0.7V8C0,8.3,0.3,8.6,0.7,8.6L0.7,8.6z"/>
	<path d="M39.3,38.7h-4.4V10.7c0-0.2-0.1-0.3-0.2-0.4l-3-3.3c-0.2-0.3-0.7-0.3-0.9,0c0,0,0,0,0,0l-3,3.3c-0.1,0.1-0.2,0.3-0.2,0.4
		v6.5c0,0.4,0.4,0.6,0.7,0.6c0.3,0,0.6-0.3,0.6-0.6V11l2.3-2.6l2.3,2.6v27.7h-4.7V19.9c0-0.4-0.4-0.6-0.7-0.6
		c-0.3,0-0.6,0.3-0.6,0.6v18.8h-3.8V26.5c0-0.2-0.1-0.3-0.2-0.4l-3-3.3c-0.2-0.3-0.7-0.3-0.9-0.1c0,0,0,0-0.1,0.1l-3,3.3
		c-0.1,0.1-0.2,0.3-0.2,0.4v12.2h-3.8V20c0-0.2-0.1-0.3-0.2-0.4l-3-3.3c-0.2-0.3-0.7-0.3-0.9,0c0,0,0,0,0,0l-3,3.3
		c-0.1,0.1-0.2,0.3-0.2,0.4V25c0,0.4,0.2,0.7,0.6,0.7c0.4,0,0.7-0.2,0.7-0.6c0,0,0-0.1,0-0.1v-4.7l2.3-2.6l2.3,2.6v18.4H6.8V27.6
		C6.7,27.3,6.4,27,6,27c-0.3,0-0.6,0.3-0.6,0.6v11.1H1.3V10.6c0-0.4-0.3-0.7-0.7-0.7S0,10.2,0,10.6c0,0,0,0,0,0v28.7
		C0,39.7,0.3,40,0.7,40h38.6c0.4,0,0.6-0.4,0.6-0.7C39.8,39,39.6,38.7,39.3,38.7z M17.8,38.7v-12l2.3-2.6l2.3,2.6v12H17.8z"/>
</g>
<g transform="translate(0 40)">
	<path class="st22" d="M30,21.2c-0.2,1.8-0.9,3.6-2.1,5l1.3,1.3c0.7,0.7,1.7,1,2.6,0.8c2.6-0.6,5.2,1,5.8,3.5s-1,5.2-3.5,5.8
		c-2.6,0.6-5.2-1-5.8-3.5c-0.2-0.8-0.2-1.5,0-2.3c0.2-0.9,0-1.9-0.7-2.6l-1.3-1.3c-1.5,1.2-3.2,1.9-5,2.1v1.7c0,0.8,0.3,1.5,0.9,2
		c1.4,1.2,1.5,3.2,0.3,4.6c-1.2,1.4-3.2,1.5-4.6,0.3c-1.4-1.2-1.5-3.2-0.3-4.6c0.1-0.1,0.2-0.3,0.4-0.4c0.6-0.5,1-1.3,1-2.1V30
		c-1.9-0.2-3.6-0.9-5.1-2.1l-1.6,1.6c-0.5,0.5-0.8,1.3-0.8,2c0,1.4-1.1,2.6-2.5,2.6S6.3,33,6.2,31.6c0-0.7,0.3-1.4,0.7-1.9
		c0.4-0.4,0.9-0.7,1.5-0.7c0.6-0.1,1.2-0.3,1.6-0.8l2-2C11,24.8,10.2,23,10,21.2H8.4c-0.8,0-1.6,0.3-2.1,0.9
		c-1.2,1.4-3.2,1.5-4.6,0.4s-1.5-3.2-0.4-4.6s3.2-1.5,4.6-0.4c0.1,0.1,0.3,0.2,0.4,0.4c0.5,0.6,1.3,0.9,2.1,0.9H10
		c0.2-1.9,0.9-3.6,2.1-5.1l-1.3-1.3c-0.7-0.7-1.7-1-2.6-0.7C5.7,12.4,3,10.8,2.4,8.2S3.3,3,5.9,2.4s5.2,0.9,5.8,3.5
		c0.2,0.8,0.2,1.5,0,2.3c-0.2,0.9,0.1,1.9,0.8,2.6l1.3,1.3c1.5-1.2,3.2-1.9,5.1-2.1V8.4c0-0.8-0.3-1.6-1-2.1
		c-1.4-1.1-1.6-3.2-0.4-4.6c1.1-1.4,3.2-1.6,4.6-0.4s1.6,3.2,0.4,4.6c-0.1,0.1-0.2,0.3-0.4,0.4c-0.6,0.5-0.9,1.3-0.9,2V10
		c1.8,0.2,3.6,1,5,2.1l2.1-2.1c0.4-0.4,0.7-1,0.8-1.5c0.1-1.2,1.2-2,2.4-1.8c1.2,0.1,2,1.2,1.8,2.4c-0.1,0.9-0.8,1.7-1.8,1.8
		c-0.6,0.1-1.1,0.4-1.5,0.8l-2.2,2.2c1.2,1.5,1.9,3.2,2.1,5h1.6c0.8,0,1.6-0.3,2.1-0.9c1.2-1.4,3.2-1.5,4.6-0.4
		c1.4,1.2,1.5,3.2,0.4,4.6s-3.2,1.5-4.6,0.4c-0.1-0.1-0.3-0.2-0.4-0.4c-0.5-0.6-1.3-1-2.1-0.9L30,21.2z"/>
	<path class="st23" d="M30,21.2c-0.2,1.8-0.9,3.6-2.1,5l1.3,1.3c0.7,0.7,1.7,1,2.6,0.8c2.6-0.6,5.2,1,5.8,3.5c0.6,2.6-1,5.2-3.5,5.8
		c-2.6,0.6-5.2-1-5.8-3.5c-0.2-0.8-0.2-1.5,0-2.3c0.2-0.9,0-1.9-0.7-2.6l-1.3-1.3c-1.5,1.2-3.2,1.9-5,2.1v1.7c0,0.8,0.3,1.5,0.9,2
		c1.4,1.2,1.5,3.2,0.4,4.6C21.9,39,21,39.4,20,39.4v-0.3c1.4-0.7,1.9-2.3,1.3-3.7c-0.1-0.3-0.3-0.5-0.5-0.8
		c-0.5-0.5-0.7-1.1-0.7-1.8v-3.4c0-0.5,0.4-0.9,0.8-0.9c3.7-0.5,6.6-4.1,6.6-8.5s-2.9-8.1-6.6-8.5C20.4,11.4,20,11,20,10.5V7.1
		c0-0.6,0.2-1.3,0.7-1.7c1.1-1.1,1-2.8,0-3.9C20.4,1.3,20.2,1.1,20,1V0.6c1.8,0,3.3,1.5,3.3,3.2c0,1-0.4,1.9-1.1,2.5
		c-0.6,0.5-0.9,1.3-0.9,2V10c1.8,0.2,3.6,1,5,2.1l2.1-2.1c0.4-0.4,0.7-1,0.8-1.5c0.1-1.2,1.2-2,2.4-1.8c1.2,0.1,2,1.2,1.8,2.4
		c-0.1,0.9-0.8,1.7-1.8,1.8c-0.6,0.1-1.1,0.4-1.5,0.8l-2.2,2.2c1.2,1.5,1.9,3.2,2.1,5h1.6c0.8,0,1.6-0.3,2.1-0.9
		c1.2-1.4,3.2-1.5,4.6-0.4s1.5,3.2,0.4,4.6s-3.2,1.5-4.6,0.4c-0.1-0.1-0.3-0.2-0.4-0.4c-0.5-0.6-1.3-1-2.1-0.9L30,21.2z"/>
	<path class="st24" d="M19.7,17.3c0,1.1-0.9,2-2,2h0c-0.3,0-0.6-0.1-0.8-0.2c-1-0.5-1.5-1.7-1-2.7s1.7-1.5,2.7-1
		C19.2,15.8,19.7,16.5,19.7,17.3L19.7,17.3z"/>
	<path class="st25" d="M19.7,17.3c0,1.1-0.9,2-2,2h0c-0.3,0-0.6-0.1-0.8-0.2c1-0.5,1.4-1.7,1-2.7c-0.2-0.4-0.5-0.8-1-1
		c1-0.5,2.2,0,2.7,1C19.6,16.7,19.7,17,19.7,17.3L19.7,17.3z"/>
	<path class="st24" d="M25,20.5c0,1-0.8,1.8-1.8,1.8c0,0,0,0,0,0c-0.3,0-0.5-0.1-0.8-0.2c-0.9-0.4-1.3-1.5-0.8-2.4
		c0.2-0.4,0.5-0.7,0.8-0.8c0.2-0.1,0.5-0.2,0.8-0.2C24.2,18.7,25,19.5,25,20.5C25,20.5,25,20.5,25,20.5L25,20.5z"/>
	<path class="st25" d="M25,20.5c0,1-0.8,1.8-1.8,1.8c0,0,0,0,0,0c-0.3,0-0.5-0.1-0.8-0.2c0.9-0.4,1.3-1.5,0.9-2.4
		c-0.2-0.4-0.5-0.7-0.9-0.9c0.2-0.1,0.5-0.2,0.8-0.2C24.2,18.7,25,19.5,25,20.5C25,20.5,25,20.5,25,20.5L25,20.5z"/>
	<path class="st24" d="M19.6,23.3c0,0.8-0.6,1.4-1.4,1.4c0,0,0,0,0,0c-0.2,0-0.5-0.1-0.7-0.2c-0.7-0.4-1-1.2-0.6-1.9
		c0.1-0.2,0.3-0.4,0.6-0.6c0.2-0.1,0.4-0.2,0.7-0.2C18.9,21.9,19.6,22.5,19.6,23.3z"/>
	<path class="st25" d="M19.6,23.3c0,0.8-0.6,1.4-1.4,1.4c0,0,0,0,0,0c-0.2,0-0.5-0.1-0.7-0.2c0.7-0.4,1-1.2,0.6-1.9
		c-0.1-0.2-0.3-0.4-0.6-0.6c0.2-0.1,0.4-0.2,0.7-0.2C18.9,21.9,19.6,22.5,19.6,23.3z"/>
	<path d="M28.8,33.5c-0.1-0.5,0-1,0.1-1.5c0.3-1.1,0-2.3-0.8-3.1l-2.4-2.4c-0.2-0.2-0.6-0.2-0.8,0c-0.2,0.2-0.2,0.6,0,0.8
		c0,0,0,0,0,0l0.5,0.5c-1.3,0.9-2.7,1.4-4.2,1.6c-0.3,0-0.5,0.3-0.5,0.6v1.7c0,1,0.4,1.9,1.1,2.5c1.1,1,1.2,2.6,0.3,3.8
		c-1,1.1-2.6,1.2-3.8,0.3c-0.6-0.5-0.9-1.2-0.9-2c0-0.3-0.3-0.6-0.6-0.6s-0.6,0.3-0.6,0.6c0,0,0,0,0,0c0,2.1,1.7,3.8,3.8,3.8
		c2.1,0,3.8-1.7,3.8-3.8c0-1.1-0.5-2.2-1.3-2.9c-0.5-0.4-0.7-1-0.7-1.6v-1.2c1.6-0.3,3.1-0.9,4.4-1.8l0.9,0.9
		c0.5,0.5,0.8,1.3,0.6,2.1c-0.2,0.6-0.2,1.3-0.1,2c0,0.3,0.3,0.5,0.6,0.5c0,0,0,0,0,0C28.6,34.1,28.8,33.8,28.8,33.5z"/>
	<path d="M18.3,31.6c0,0.6-0.3,1.2-0.8,1.6c-0.2,0.2-0.3,0.6-0.1,0.8c0.2,0.2,0.6,0.3,0.8,0.1c0,0,0,0,0,0c0.7-0.6,1.2-1.6,1.2-2.5
		V30c0-0.3-0.2-0.6-0.5-0.6c-1.7-0.2-3.4-0.9-4.8-2c-0.2-0.2-0.6-0.2-0.8,0l-1.6,1.6c-0.7,0.6-1,1.5-1,2.4c0.1,1.1-0.7,2-1.8,2.1
		s-2-0.7-2.1-1.8c0-0.1,0-0.2,0-0.3c0-0.5,0.2-1,0.6-1.4c0.3-0.3,0.7-0.5,1.2-0.6c0.7-0.1,1.4-0.4,2-1l2-2c0.2-0.2,0.2-0.5,0-0.8
		c-1-1.2-1.6-2.6-1.9-4.1h1.6c0.3,0,0.6-0.3,0.6-0.6s-0.3-0.6-0.6-0.6H8.4c-1,0-1.9,0.4-2.5,1.1C4.9,22.8,3.2,23,2.1,22
		c-1.1-0.9-1.3-2.6-0.3-3.8S4.4,17,5.6,18c0.1,0.1,0.2,0.2,0.3,0.3c0.6,0.7,1.5,1.2,2.5,1.1h3.1c0.3,0,0.6-0.3,0.6-0.6
		s-0.3-0.6-0.6-0.6h-0.8c0.2-1.3,0.8-2.5,1.5-3.6l1.1,1.1c0.2,0.2,0.6,0.2,0.8,0c0.2-0.2,0.2-0.6,0-0.8L11.3,12
		c-0.8-0.8-2-1.2-3.2-0.9C5.8,11.7,3.5,10.3,3,8.1S3.8,3.5,6,3s4.6,0.8,5.1,3.1c0.2,0.7,0.2,1.4,0,2c-0.3,1.1,0.1,2.3,0.9,3.2
		l2.3,2.3c0.1,0.1,0.3,0.2,0.4,0.2c0.2,0,0.3-0.1,0.4-0.2c0.2-0.2,0.2-0.6,0-0.8c0,0,0,0,0,0l-0.5-0.5c1.3-0.9,2.7-1.4,4.3-1.6
		c0.3,0,0.5-0.3,0.5-0.6V8.4c0-1-0.4-1.9-1.2-2.5C17.2,4.9,17,3.3,18,2.1c0.9-1.1,2.6-1.3,3.8-0.3c0.6,0.5,1,1.3,1,2
		c0,0.3,0.3,0.6,0.6,0.6s0.6-0.3,0.6-0.6C23.8,1.7,22.1,0,20,0c-2.1,0-3.8,1.7-3.8,3.8c0,1.1,0.5,2.2,1.4,2.9c0.5,0.4,0.8,1,0.8,1.6
		v1.1c-1.6,0.3-3.1,0.9-4.4,1.8l-1-1c-0.5-0.5-0.8-1.3-0.6-2.1c0.7-2.9-1.1-5.8-4-6.5s-5.8,1.1-6.5,4s1.1,5.8,4,6.5
		c0.9,0.2,1.8,0.2,2.6,0c0.7-0.2,1.5,0.1,2.1,0.6l0.9,0.9c-1,1.3-1.6,2.8-1.9,4.5H8.4c-0.6,0-1.2-0.3-1.6-0.7
		c-1.4-1.6-3.8-1.8-5.4-0.5c-1.6,1.4-1.8,3.8-0.5,5.4s3.8,1.8,5.4,0.5c0.2-0.1,0.3-0.3,0.5-0.5c0.4-0.5,1-0.7,1.6-0.7h1.1
		c0.3,1.6,0.9,3.1,1.9,4.4l-1.7,1.7c-0.4,0.3-0.8,0.6-1.3,0.6c-1.7,0.2-3,1.8-2.8,3.5c0.2,1.7,1.8,3,3.5,2.8
		c1.6-0.2,2.8-1.6,2.8-3.2c0-0.6,0.2-1.2,0.6-1.6l1.3-1.3c1.3,0.9,2.8,1.6,4.5,1.8V31.6z"/>
	<path d="M31.6,21.7c0.6,0,1.2,0.3,1.6,0.7c1.4,1.6,3.8,1.8,5.4,0.5c1.6-1.4,1.8-3.8,0.5-5.4s-3.8-1.8-5.4-0.5
		c-0.2,0.1-0.3,0.3-0.5,0.5c-0.4,0.5-1,0.7-1.6,0.7h-1.1c-0.3-1.6-0.9-3.1-1.8-4.4l1.8-1.8c0.3-0.3,0.8-0.5,1.2-0.6
		c1.5-0.2,2.5-1.6,2.3-3.1c-0.1-0.6-0.4-1.1-0.8-1.5C32.7,6.3,32,6,31.3,6l0,0c-1.4,0-2.5,1-2.7,2.4c-0.1,0.5-0.3,0.9-0.6,1.2
		l-1.8,1.8c-1.3-0.9-2.8-1.6-4.4-1.8V8.3c0-0.6,0.3-1.2,0.7-1.6c0.2-0.2,0.3-0.6,0.1-0.8c0,0,0,0,0,0c-0.2-0.2-0.6-0.3-0.8-0.1
		c0,0,0,0,0,0c-0.7,0.6-1.1,1.5-1.1,2.5V10c0,0.3,0.2,0.6,0.5,0.6c1.7,0.2,3.4,0.9,4.7,2c0.2,0.2,0.6,0.2,0.8,0l2.1-2.1
		c0.5-0.5,0.8-1.2,0.9-1.9c0.1-0.8,0.7-1.3,1.5-1.3l0,0c0.8,0,1.5,0.7,1.5,1.5c0,0.4-0.2,0.8-0.4,1.1c-0.2,0.2-0.5,0.4-0.8,0.4
		c-0.7,0.1-1.4,0.4-1.9,0.9l-2.2,2.2c-0.2,0.2-0.2,0.5,0,0.8c0.9,1.2,1.6,2.6,1.9,4.1h-1.6c-0.3,0-0.6,0.3-0.6,0.6s0.3,0.6,0.6,0.6
		c0,0,0,0,0,0h3.9c1,0,1.9-0.4,2.5-1.1c0.9-1.1,2.6-1.3,3.8-0.3s1.3,2.6,0.3,3.8S35.6,23,34.4,22c-0.1-0.1-0.2-0.2-0.3-0.3
		c-0.6-0.7-1.5-1.2-2.5-1.1h-3.1c-0.3,0-0.6,0.3-0.6,0.6c0,0.3,0.3,0.6,0.6,0.6h0.8c-0.2,1.3-0.7,2.5-1.5,3.6l-1-1
		c-0.2-0.2-0.6-0.2-0.8,0c-0.2,0.2-0.2,0.6,0,0.8c0,0,0,0,0,0l2.8,2.9c0.8,0.8,2,1.2,3.2,0.9c2.3-0.5,4.5,0.8,5.1,3.1
		s-0.8,4.5-3.1,5.1c-1.4,0.3-2.9-0.1-4-1.1c-0.1-0.1-0.3-0.3-0.4-0.4c-0.2-0.3-0.6-0.3-0.8-0.1c-0.3,0.2-0.3,0.6-0.1,0.8
		c0.1,0.2,0.3,0.4,0.5,0.6c2.1,2.1,5.5,2.1,7.6,0s2.1-5.5,0-7.6c-1.3-1.3-3.3-1.9-5.1-1.4c-0.7,0.2-1.5-0.1-2.1-0.6l-1-1
		c0.9-1.3,1.6-2.8,1.8-4.4L31.6,21.7z"/>
	<path d="M17.7,14.7c-1.4,0-2.6,1.2-2.6,2.6s1.2,2.6,2.6,2.6c1.4,0,2.6-1.2,2.6-2.6C20.3,15.9,19.1,14.7,17.7,14.7L17.7,14.7z
		 M17.7,18.7c-0.8,0-1.4-0.6-1.4-1.4s0.6-1.4,1.4-1.4s1.4,0.6,1.4,1.4v0C19.1,18.1,18.4,18.7,17.7,18.7L17.7,18.7z"/>
	<path d="M20.8,20.5c0,1.3,1.1,2.4,2.4,2.4s2.4-1.1,2.4-2.4c0-1.3-1.1-2.4-2.4-2.4c0,0,0,0,0,0C21.9,18.1,20.8,19.2,20.8,20.5z
		 M23.2,19.3c0.7,0,1.2,0.5,1.2,1.2s-0.5,1.2-1.2,1.2c-0.7,0-1.2-0.5-1.2-1.2C22,19.8,22.5,19.3,23.2,19.3
		C23.2,19.3,23.2,19.3,23.2,19.3L23.2,19.3z"/>
	<path d="M16.1,23.3c0,1.1,0.9,2,2,2s2-0.9,2-2s-0.9-2-2-2c-0.5,0-1,0.2-1.4,0.6C16.3,22.3,16.1,22.8,16.1,23.3z M19,23.3
		c0,0.5-0.4,0.8-0.8,0.8s-0.8-0.4-0.8-0.8s0.4-0.8,0.8-0.8h0C18.6,22.5,19,22.9,19,23.3L19,23.3z"/>
	<circle cx="4.7" cy="6.5" r="0.6"/>
	<circle cx="5.2" cy="8.6" r="0.6"/>
	<circle cx="6.8" cy="7.4" r="0.6"/>
	<path d="M32.7,30c-0.3,0-0.6,0.3-0.6,0.6s0.3,0.6,0.6,0.6s0.6-0.3,0.6-0.6l0,0C33.3,30.3,33,30,32.7,30z"/>
	<path d="M32.6,32.8c0,0.3,0.3,0.6,0.6,0.6s0.6-0.3,0.6-0.6s-0.3-0.6-0.6-0.6l0,0C32.8,32.2,32.6,32.4,32.6,32.8z"/>
	<circle cx="34.7" cy="31.5" r="0.6"/>
	<circle cx="22.3" cy="25.8" r="0.6"/>
	<circle cx="22.3" cy="14.7" r="0.6"/>
	<circle cx="14.7" cy="21" r="0.6"/>
</g>
<g transform="translate(0 160)">
	<path d="M11.7,23.1c1.8,0,3.6-0.5,5.3-1.3h0c1.2,0.6,2.5,0.9,3.8,0.8c0.5-0.1,0.9-0.5,0.8-1.1c0-0.2-0.1-0.3-0.2-0.5
		c-0.5-0.6-0.9-1.2-1.2-1.9c0,0,0,0,0,0C24,15,24.1,8.7,20.5,4.3C20.3,4,20,4,19.7,4.2c-0.3,0.2-0.3,0.6-0.1,0.8c0,0,0,0,0,0
		c3.2,3.9,3.1,9.6-0.3,13.4c-0.3,0.4-0.4,0.9-0.2,1.3c0.3,0.6,0.6,1.2,1.1,1.8c-1-0.1-1.9-0.3-2.8-0.8c-0.3-0.2-0.7-0.1-1.1,0
		c-4,2.1-8.9,1.4-12.1-1.8c-2-1.9-3.1-4.5-3.2-7.3C1.1,6,5.7,1.3,11.4,1.2c2.3,0,4.5,0.7,6.3,2c0.3,0.2,0.6,0.1,0.8-0.1
		c0.2-0.3,0.1-0.6-0.1-0.8C13.3-1.5,6.1-0.5,2.3,4.6c-3.5,4.7-3,11.2,1.2,15.2c2.1,2.1,5,3.3,8,3.3L11.7,23.1z"/>
	<path d="M15.2,11.6c0,1.1,0.9,2.1,2.1,2.1s2.1-0.9,2.1-2.1s-0.9-2.1-2.1-2.1l0,0C16.1,9.5,15.2,10.4,15.2,11.6z M18.1,11.6
		c0,0.5-0.4,0.9-0.9,0.9c-0.5,0-0.9-0.4-0.9-0.9c0-0.5,0.4-0.9,0.9-0.9l0,0C17.7,10.7,18.1,11.1,18.1,11.6L18.1,11.6L18.1,11.6z"/>
	<path d="M9.5,11.6c0,1.1,0.9,2.1,2.1,2.1s2.1-0.9,2.1-2.1s-0.9-2.1-2.1-2.1l0,0C10.4,9.5,9.5,10.4,9.5,11.6z M12.5,11.6
		c0,0.5-0.4,0.9-0.9,0.9c-0.5,0-0.9-0.4-0.9-0.9c0-0.5,0.4-0.9,0.9-0.9S12.5,11.1,12.5,11.6L12.5,11.6z"/>
	<path d="M3.8,11.6c0,1.1,0.9,2.1,2.1,2.1s2.1-0.9,2.1-2.1c0-1.1-0.9-2.1-2.1-2.1c0,0,0,0,0,0C4.7,9.5,3.8,10.4,3.8,11.6z M6.8,11.6
		c0,0.5-0.4,0.9-0.9,0.9c-0.5,0-0.9-0.4-0.9-0.9s0.4-0.9,0.9-0.9S6.8,11.1,6.8,11.6z"/>
	<path d="M39,13.1c-0.3,0-0.6,0.2-0.6,0.5c-0.2,1.4-0.4,2.7-0.9,4c-1.5,5.2-4.1,10-7.8,14c-1,1-2,2-3.2,2.9
		c-0.4,0.3-0.8,0.6-1.2,0.9c-0.8,0.6-1.7,1.1-2.6,1.7c-2,1.3-4.4,1.8-6.8,1.5c-0.3-0.1-0.6-0.1-0.9-0.2c1.3-1,2.5-2,3.7-3.1
		c1.4-1.3,2.7-2.5,3.9-3.7c0,0,0,0,0,0l0,0l0.7-0.7c4.2-4.1,7.5-9,9.4-14.6c0,0,0.4-1,0.4-1c1.1-3.1,2-6.3,2.9-9.7
		c0.7,0.8,1.3,1.7,1.7,2.7c0.3,0.7,0.5,1.4,0.6,2.2c0,0.3,0.3,0.5,0.7,0.5c0,0,0,0,0,0c0.3,0,0.5-0.3,0.5-0.6c0,0,0,0,0,0
		c-0.1-0.8-0.3-1.7-0.7-2.5c-0.1-0.2-0.2-0.4-0.3-0.5c-0.8-1.5-2-2.9-3.4-3.9c-1.4-1.1-3.3-1.8-5-1.1c-0.6,0.3-1.1,0.7-1.4,1.2
		c-0.2,0.3-0.4,0.7-0.6,1.1c0,0.1-1.2,3.8-1.6,5.6c-0.4,1.2-0.1,2.4,0.9,3.2c0.3,0.2,0.6,0.5,1,0.6c0.8,0.4,1.7,0.8,2.6,1.1l0.4,0.1
		l0.5,0.2L31.6,16c-1.9,5.4-5,10.2-9.1,14.1l0,0l-0.3,0.3l-0.6-0.6c-0.6-0.7-1.3-1.3-1.9-1.9c-1.2-1.2-3.2-1.3-4.4-0.1
		c-1.6,1.2-3.2,2.5-4.6,3.9c-1.7,1.7-1.7,3.6,0.1,5.4c0.6,0.6,1.3,1.2,2.1,1.6l0,0c0.3,0.2,0.5,0.3,0.8,0.4h0
		c0.7,0.3,1.4,0.5,2.2,0.6c0.5,0.1,1,0.1,1.5,0.1c2.2-0.1,4.3-0.7,6.1-1.8c0.9-0.5,1.8-1.1,2.7-1.7c0.4-0.3,0.9-0.6,1.3-1
		c2.8-2.3,5.3-5.1,7.2-8.2c0.4-0.6,0.8-1.3,1.1-2c1.2-2.3,2.2-4.8,3-7.3c0.4-1.4,0.7-2.8,0.9-4.3C39.5,13.5,39.3,13.2,39,13.1
		L39,13.1z M31.8,14.2c-0.8-0.3-1.5-0.6-2.2-0.9c-0.5-0.2-0.9-0.5-1.3-0.8c-0.6-0.5-0.8-1.3-0.5-2.1c0.4-1.7,1.5-5.2,1.6-5.4
		c0.1-0.3,0.2-0.6,0.4-0.8c0.2-0.3,0.6-0.6,0.9-0.8c1.5-0.7,3.2,0.4,4.4,1.3l0,0c-0.8,3.3-1.8,6.6-2.8,9.6
		C32.1,14.3,31.9,14.3,31.8,14.2z M13.3,37.8L13.3,37.8c-0.7-0.4-1.3-0.8-1.8-1.4c-1.3-1.4-1.4-2.5-0.1-3.8c1.4-1.4,2.9-2.6,4.5-3.8
		c0.8-0.8,2.1-0.8,2.9,0c0,0,0.1,0.1,0.1,0.1c0.6,0.5,2.5,2.4,2.5,2.4c-1,1-2.1,2.1-3.4,3.2c-1.3,1.2-2.8,2.4-4.3,3.5
		C13.6,37.9,13.4,37.9,13.3,37.8z"/>
</g>
<g transform="translate(0 320)">
	<path d="M27,24.9c-0.4,0-0.8,0.3-0.8,0.8l0,0v5.4c0,2.2-1.7,3.9-3.9,3.9c0,0,0,0,0,0h-8.4c-0.4,0-0.8,0.3-0.8,0.8l0,0v1.6l-1.9-1.9
		c-0.1-0.3-0.4-0.5-0.7-0.5H5.5c-2.2,0-3.9-1.7-3.9-3.9c0,0,0,0,0,0v-12c0-2.2,1.7-3.9,3.9-3.9c0,0,0,0,0,0h7.9
		c0.4,0,0.8-0.3,0.8-0.8c0-0.4-0.3-0.8-0.8-0.8c0,0,0,0,0,0H5.5c-3,0-5.5,2.4-5.5,5.5v12c0,3,2.5,5.5,5.5,5.5h4.7l3.2,3.2
		c0.1,0.1,0.3,0.2,0.6,0.2c0.1,0,0.2,0,0.3-0.1c0.3-0.1,0.5-0.4,0.5-0.7v-2.7h7.7c3,0,5.5-2.5,5.5-5.5v-5.4
		C27.8,25.3,27.5,24.9,27,24.9C27,24.9,27,24.9,27,24.9z"/>
	<path d="M28.6,0h-2c-6.3,0-11.4,5.1-11.4,11.4s5.1,11.4,11.4,11.4h2c1,0,1.9-0.1,2.9-0.4l2.9,2.9c0.3,0.3,0.8,0.3,1.1,0
		c0.2-0.1,0.2-0.3,0.2-0.6v-4.5c1.2-1,2.3-2.3,3-3.7c0.8-1.6,1.2-3.4,1.2-5.2C40,5.1,34.9,0,28.6,0z M34.5,19.2
		c-0.2,0.1-0.3,0.4-0.3,0.6v3l-1.9-1.9c-0.1-0.1-0.3-0.2-0.5-0.2c-0.1,0-0.2,0-0.2,0c-0.9,0.3-1.9,0.4-2.9,0.4h-2
		c-5.4,0-9.8-4.4-9.8-9.8c0-5.4,4.4-9.8,9.8-9.8h2c5.4,0,9.8,4.4,9.8,9.8C38.4,14.4,37,17.3,34.5,19.2L34.5,19.2z"/>
	<path d="M31.2,8.5c-0.1-1.8-1.6-3.2-3.4-3.2c-1.8,0.1-3.2,1.6-3.2,3.4c0,0.4,0.3,0.8,0.8,0.8s0.8-0.3,0.8-0.8c0-1,0.8-1.7,1.8-1.7
		c0,0,0.1,0,0.1,0c1,0.1,1.7,0.9,1.6,1.8c0,0.8-0.6,1.4-1.4,1.6c-0.7,0.1-1.2,0.7-1.2,1.4v1.9c0,0.4,0.3,0.8,0.8,0.8
		s0.8-0.3,0.8-0.8V12C30.2,11.6,31.3,10.2,31.2,8.5z"/>
	<path d="M28.4,16.4c-0.3-0.3-0.8-0.3-1.1,0s-0.3,0.8,0,1.1c0.3,0.3,0.8,0.3,1.1,0c0,0,0,0,0,0c0.1-0.1,0.2-0.3,0.2-0.6
		C28.7,16.7,28.6,16.5,28.4,16.4z"/>
	<path d="M21.5,24.2H5c-0.4,0-0.8,0.3-0.8,0.8s0.3,0.8,0.8,0.8h16.5c0.4,0,0.8-0.3,0.8-0.8S21.9,24.2,21.5,24.2z"/>
	<path d="M22,28.8c-0.3-0.3-0.8-0.3-1.1,0s-0.3,0.8,0,1.1s0.8,0.3,1.1,0c0.2-0.1,0.2-0.3,0.2-0.6C22.3,29.2,22.2,29,22,28.8z"/>
	<path d="M18.4,28.6H5c-0.4,0-0.8,0.3-0.8,0.8s0.3,0.8,0.8,0.8h13.4c0.4,0,0.8-0.3,0.8-0.8S18.9,28.6,18.4,28.6z"/>
	<path d="M16.4,19.8H5c-0.4,0-0.8,0.3-0.8,0.8c0,0.4,0.3,0.8,0.8,0.8c0,0,0,0,0,0h11.4c0.4,0,0.8-0.3,0.8-0.8S16.8,19.8,16.4,19.8
		C16.4,19.8,16.4,19.8,16.4,19.8z"/>
</g>
<g transform="translate(0 240)">
	<path d="M36.9,3.1C32.8-1,26.1-1,22,3.1l-6.1,6.1c-1.2,1.1-2,2.6-2.5,4.1c-1.5,0.5-2.9,1.4-4.1,2.5L3.1,22
		c-4.1,4.1-4.1,10.8,0,14.9s10.8,4.1,14.9,0l0,0l6.1-6.1c1.2-1.1,2-2.6,2.5-4.1c1.5-0.5,2.9-1.4,4.1-2.5l6.2-6.1
		C41,13.9,41,7.2,36.9,3.1z M13.8,21.2c1,2.2,2.8,3.9,5,5L13,32c-1.4,1.4-3.6,1.4-5,0c-1.4-1.4-1.4-3.6,0-5L13.8,21.2z M22.5,29.1
		l-6.1,6.1c-3.2,3.2-8.4,3.2-11.6,0c-3.2-3.2-3.2-8.4,0-11.6l0,0l6.1-6.1c0.6-0.6,1.2-1,1.9-1.4c0,0.9,0,1.8,0.2,2.7
		c-0.2,0.1-0.3,0.3-0.4,0.4l-6.1,6.1c-2.3,2.3-2.2,6,0.1,8.3c2.3,2.2,5.9,2.2,8.2,0l6.1-6.1c2.3-2.3,2.3-6,0-8.3
		c-0.9-0.9-1.2-2.2-0.9-3.4c1,0.4,1.8,1,2.6,1.7C25.7,20.7,25.7,25.9,22.5,29.1L22.5,29.1z M26.2,18.8c-1-2.2-2.8-3.9-5-5L27,8
		c1.4-1.4,3.6-1.4,5,0c1.4,1.4,1.4,3.6,0,5l0,0L26.2,18.8z M35.3,16.3l-6.1,6.1c-0.6,0.6-1.2,1-1.9,1.4c0-0.9,0-1.8-0.2-2.7
		c0.2-0.1,0.3-0.3,0.4-0.4l6.1-6.1c2.3-2.3,2.3-6,0-8.3s-6-2.3-8.3,0l0,0l-6.1,6.1c-2.3,2.3-2.3,6,0,8.3c0.9,0.9,1.2,2.2,0.9,3.4
		c-1-0.4-1.8-1-2.6-1.7c-3.2-3.2-3.2-8.4,0-11.6l6.1-6.1c3.2-3.3,8.4-3.3,11.6-0.2c3.3,3.2,3.3,8.4,0.2,11.6
		C35.4,16.2,35.3,16.3,35.3,16.3L35.3,16.3z"/>
	<path d="M34.1,32.4l-1.7-1.7c-0.5-0.4-1.2-0.4-1.7,0.1c-0.4,0.4-0.4,1.1,0,1.6l1.7,1.7c0.4,0.5,1.2,0.6,1.7,0.1s0.6-1.2,0.1-1.7
		C34.2,32.5,34.1,32.5,34.1,32.4z"/>
	<path d="M9.2,7.6L7.6,5.9c-0.4-0.5-1.2-0.5-1.7,0s-0.5,1.2,0,1.7c0,0,0,0,0,0l1.7,1.7C8,9.7,8.7,9.7,9.2,9.3
		C9.7,8.9,9.7,8.1,9.2,7.6C9.3,7.6,9.2,7.6,9.2,7.6z"/>
	<path d="M38.4,23.7l-2.3-0.6c-0.6-0.2-1.3,0.2-1.4,0.8s0.2,1.3,0.8,1.4l2.3,0.6c0.6,0.2,1.3-0.2,1.4-0.8S39.1,23.9,38.4,23.7
		L38.4,23.7z"/>
	<path d="M4.4,14.6L2.2,14c-0.6-0.2-1.3,0.2-1.4,0.8c-0.2,0.6,0.2,1.3,0.8,1.4l0,0c0.8,0.3,1.7,0.5,2.6,0.6c0.6,0,1.2-0.5,1.2-1.2
		C5.3,15.2,4.9,14.8,4.4,14.6L4.4,14.6z"/>
	<path d="M26,37.8l-0.6-2.3c-0.2-0.6-0.8-1-1.4-0.8s-1,0.8-0.8,1.4l0.6,2.3c0.2,0.6,0.8,1,1.4,0.8S26.2,38.4,26,37.8L26,37.8z"/>
	<path d="M16.9,3.8l-0.6-2.3c-0.2-0.6-0.8-1-1.4-0.8c-0.6,0.2-1,0.8-0.8,1.4l0.6,2.3c0.2,0.6,0.8,1,1.4,0.8
		C16.7,5.1,17.1,4.5,16.9,3.8z"/>
</g>
<g transform="translate(0 400)">
	<path class="st26" d="M37.6,17.6c-2.7-0.5-4.4-3.1-4-5.7c0.1-0.7,0.4-1.4,0.9-2l1.5-2.1l-3.3-3.3l-2,1.4c-2.2,1.6-5.3,1-6.9-1.2
		c-0.4-0.6-0.7-1.3-0.8-2.1L22.7,0h-4.6l-0.6,3.1c-0.5,2.7-3,4.5-5.7,4C11.1,7,10.4,6.7,9.8,6.3L7.2,4.5L3.9,7.8l1.5,2.1
		c1.6,2.2,1.2,5.3-1,6.9c-0.6,0.4-1.3,0.7-2,0.9L0,18.1v4.6l2.5,0.4c2.7,0.4,4.5,2.9,4.1,5.6c-0.1,0.8-0.4,1.5-0.8,2.1l-1.4,2
		l3.3,3.3l2.1-1.5c2.2-1.6,5.3-1.2,6.9,1c0.4,0.6,0.7,1.3,0.9,2l0.5,2.4h4.6l0.3-1.8c0.3-2.7,2.8-4.5,5.4-4.2c0.9,0.1,1.7,0.4,2.4,1
		l1.5,1.1l3.3-3.3l-1.4-2c-1.6-2.2-1-5.3,1.2-6.9c0.6-0.4,1.3-0.7,2.1-0.8l2.5-0.4v-4.6L37.6,17.6z M20.4,23.8
		c-1.9,0-3.5-1.5-3.5-3.5s1.5-3.5,3.5-3.5s3.5,1.5,3.5,3.5S22.3,23.8,20.4,23.8L20.4,23.8z"/>
	<path class="st27" d="M20.4,13.1c-4,0-7.3,3.3-7.3,7.3s3.3,7.3,7.3,7.3s7.3-3.3,7.3-7.3C27.7,16.4,24.4,13.1,20.4,13.1z M20.4,23.8
		c-1.9,0-3.5-1.5-3.5-3.5s1.5-3.5,3.5-3.5s3.5,1.5,3.5,3.5C23.8,22.3,22.3,23.8,20.4,23.8z"/>
</g>
<g transform="translate(0 80)">
	<path d="M0.7,0C0.3,0,0,0.3,0,0.7V8c0,0.4,0.3,0.7,0.7,0.7C1,8.6,1.3,8.3,1.3,8V0.7C1.3,0.3,1,0,0.7,0z"/>
	<path d="M39.3,38.7h-4.4V10.7c0-0.2-0.1-0.3-0.2-0.4l-3-3.3c-0.2-0.3-0.7-0.3-0.9,0c0,0,0,0,0,0l-3,3.3c-0.1,0.1-0.2,0.3-0.2,0.4
		v6.5c0,0.4,0.4,0.6,0.7,0.6c0.3,0,0.6-0.3,0.6-0.6V11l2.3-2.6l2.3,2.6v27.7h-4.7V19.9c0-0.4-0.4-0.6-0.7-0.6
		c-0.3,0-0.6,0.3-0.6,0.6v18.8h-3.8V26.5c0-0.2-0.1-0.3-0.2-0.4l-3-3.3c-0.2-0.3-0.7-0.3-0.9-0.1c0,0,0,0-0.1,0.1l-3,3.3
		c-0.1,0.1-0.2,0.3-0.2,0.4v12.2h-3.8V20c0-0.2-0.1-0.3-0.2-0.4l-3-3.3c-0.2-0.3-0.7-0.3-0.9,0c0,0,0,0,0,0l-3,3.3
		c-0.1,0.1-0.2,0.3-0.2,0.4V25c0,0.4,0.2,0.7,0.6,0.7c0.4,0,0.7-0.2,0.7-0.6c0,0,0-0.1,0-0.1v-4.7l2.3-2.6l2.3,2.6v18.4H6.8V27.6
		C6.7,27.3,6.4,27,6,27c-0.3,0-0.6,0.3-0.6,0.6v11.1H1.3V10.6c0-0.4-0.3-0.7-0.7-0.7S0,10.2,0,10.6c0,0,0,0,0,0v28.7
		C0,39.7,0.3,40,0.7,40h38.6c0.4,0,0.6-0.4,0.6-0.7C39.8,39,39.6,38.7,39.3,38.7z M22.5,38.7h-4.7v-12l2.3-2.6l2.3,2.6L22.5,38.7z"
		/>
</g>
<path d="M28.8,33.5c-0.1-0.5,0-1,0.1-1.5c0.3-1.1,0-2.3-0.8-3.1l-2.4-2.4c-0.2-0.2-0.6-0.2-0.8,0c-0.2,0.2-0.2,0.6,0,0.8
	c0,0,0,0,0,0l0.5,0.5c-1.3,0.9-2.7,1.4-4.2,1.6c-0.3,0-0.5,0.3-0.5,0.6v1.7c0,1,0.4,1.9,1.1,2.5c1.1,1,1.2,2.6,0.3,3.8
	c-1,1.1-2.6,1.2-3.8,0.3c-0.6-0.5-0.9-1.2-0.9-2c0-0.3-0.3-0.6-0.6-0.6s-0.6,0.3-0.6,0.6c0,0,0,0,0,0c0,2.1,1.7,3.8,3.8,3.8
	c2.1,0,3.8-1.7,3.8-3.8c0-1.1-0.5-2.2-1.3-2.9c-0.5-0.4-0.7-1-0.7-1.6v-1.2c1.6-0.3,3.1-0.9,4.4-1.8l0.9,0.9
	c0.5,0.5,0.8,1.3,0.6,2.1c-0.2,0.6-0.2,1.3-0.1,2c0,0.3,0.3,0.5,0.6,0.5c0,0,0,0,0,0C28.6,34.1,28.8,33.8,28.8,33.5z"/>
<path d="M18.3,31.6c0,0.6-0.3,1.2-0.8,1.6c-0.2,0.2-0.3,0.6-0.1,0.8c0.2,0.2,0.6,0.3,0.8,0.1c0,0,0,0,0,0c0.7-0.6,1.2-1.6,1.2-2.5
	V30c0-0.3-0.2-0.6-0.5-0.6c-1.7-0.2-3.4-0.9-4.8-2c-0.2-0.2-0.6-0.2-0.8,0l-1.6,1.6c-0.7,0.6-1,1.5-1,2.4c0.1,1.1-0.7,2-1.8,2.1
	s-2-0.7-2.1-1.8c0-0.1,0-0.2,0-0.3c0-0.5,0.2-1,0.6-1.4c0.3-0.3,0.7-0.5,1.2-0.6c0.7-0.1,1.4-0.4,2-1l2-2c0.2-0.2,0.2-0.5,0-0.8
	c-1-1.2-1.6-2.6-1.9-4.1h1.6c0.3,0,0.6-0.3,0.6-0.6s-0.3-0.6-0.6-0.6H8.4c-1,0-1.9,0.4-2.5,1.1C4.9,22.8,3.2,23,2.1,22
	c-1.1-0.9-1.3-2.6-0.3-3.8S4.4,17,5.6,18c0.1,0.1,0.2,0.2,0.3,0.3c0.6,0.7,1.5,1.2,2.5,1.1h3.1c0.3,0,0.6-0.3,0.6-0.6
	s-0.3-0.6-0.6-0.6h-0.8c0.2-1.3,0.8-2.5,1.5-3.6l1.1,1.1c0.2,0.2,0.6,0.2,0.8,0c0.2-0.2,0.2-0.6,0-0.8L11.3,12
	c-0.8-0.8-2-1.2-3.2-0.9C5.8,11.7,3.5,10.3,3,8.1S3.8,3.5,6,3s4.6,0.8,5.1,3.1c0.2,0.7,0.2,1.4,0,2c-0.3,1.1,0.1,2.3,0.9,3.2
	l2.3,2.3c0.1,0.1,0.3,0.2,0.4,0.2c0.2,0,0.3-0.1,0.4-0.2c0.2-0.2,0.2-0.6,0-0.8c0,0,0,0,0,0l-0.5-0.5c1.3-0.9,2.7-1.4,4.3-1.6
	c0.3,0,0.5-0.3,0.5-0.6V8.4c0-1-0.4-1.9-1.2-2.5C17.2,4.9,17,3.3,18,2.1c0.9-1.1,2.6-1.3,3.8-0.3c0.6,0.5,1,1.3,1,2
	c0,0.3,0.3,0.6,0.6,0.6s0.6-0.3,0.6-0.6C23.8,1.7,22.1,0,20,0c-2.1,0-3.8,1.7-3.8,3.8c0,1.1,0.5,2.2,1.4,2.9c0.5,0.4,0.8,1,0.8,1.6
	v1.1c-1.6,0.3-3.1,0.9-4.4,1.8l-1-1c-0.5-0.5-0.8-1.3-0.6-2.1c0.7-2.9-1.1-5.8-4-6.5s-5.8,1.1-6.5,4s1.1,5.8,4,6.5
	c0.9,0.2,1.8,0.2,2.6,0c0.7-0.2,1.5,0.1,2.1,0.6l0.9,0.9c-1,1.3-1.6,2.8-1.9,4.5H8.4c-0.6,0-1.2-0.3-1.6-0.7
	c-1.4-1.6-3.8-1.8-5.4-0.5c-1.6,1.4-1.8,3.8-0.5,5.4s3.8,1.8,5.4,0.5c0.2-0.1,0.3-0.3,0.5-0.5c0.4-0.5,1-0.7,1.6-0.7h1.1
	c0.3,1.6,0.9,3.1,1.9,4.4l-1.7,1.7c-0.4,0.3-0.8,0.6-1.3,0.6c-1.7,0.2-3,1.8-2.8,3.5c0.2,1.7,1.8,3,3.5,2.8c1.6-0.2,2.8-1.6,2.8-3.2
	c0-0.6,0.2-1.2,0.6-1.6l1.3-1.3c1.3,0.9,2.8,1.6,4.5,1.8V31.6z"/>
<path d="M31.6,21.7c0.6,0,1.2,0.3,1.6,0.7c1.4,1.6,3.8,1.8,5.4,0.5c1.6-1.4,1.8-3.8,0.5-5.4s-3.8-1.8-5.4-0.5
	c-0.2,0.1-0.3,0.3-0.5,0.5c-0.4,0.5-1,0.7-1.6,0.7h-1.1c-0.3-1.6-0.9-3.1-1.8-4.4l1.8-1.8c0.3-0.3,0.8-0.5,1.2-0.6
	c1.5-0.2,2.5-1.6,2.3-3.1c-0.1-0.6-0.4-1.1-0.8-1.5C32.7,6.3,32,6,31.3,6l0,0c-1.4,0-2.5,1-2.7,2.4c-0.1,0.5-0.3,0.9-0.6,1.2
	l-1.8,1.8c-1.3-0.9-2.8-1.6-4.4-1.8V8.3c0-0.6,0.3-1.2,0.7-1.6c0.2-0.2,0.3-0.6,0.1-0.8c0,0,0,0,0,0c-0.2-0.2-0.6-0.3-0.8-0.1
	c0,0,0,0,0,0c-0.7,0.6-1.1,1.5-1.1,2.5V10c0,0.3,0.2,0.6,0.5,0.6c1.7,0.2,3.4,0.9,4.7,2c0.2,0.2,0.6,0.2,0.8,0l2.1-2.1
	c0.5-0.5,0.8-1.2,0.9-1.9c0.1-0.8,0.7-1.3,1.5-1.3l0,0c0.8,0,1.5,0.7,1.5,1.5c0,0.4-0.2,0.8-0.4,1.1c-0.2,0.2-0.5,0.4-0.8,0.4
	c-0.7,0.1-1.4,0.4-1.9,0.9l-2.2,2.2c-0.2,0.2-0.2,0.5,0,0.8c0.9,1.2,1.6,2.6,1.9,4.1h-1.6c-0.3,0-0.6,0.3-0.6,0.6s0.3,0.6,0.6,0.6
	c0,0,0,0,0,0h3.9c1,0,1.9-0.4,2.5-1.1c0.9-1.1,2.6-1.3,3.8-0.3s1.3,2.6,0.3,3.8S35.6,23,34.4,22c-0.1-0.1-0.2-0.2-0.3-0.3
	c-0.6-0.7-1.5-1.2-2.5-1.1h-3.1c-0.3,0-0.6,0.3-0.6,0.6c0,0.3,0.3,0.6,0.6,0.6h0.8c-0.2,1.3-0.7,2.5-1.5,3.6l-1-1
	c-0.2-0.2-0.6-0.2-0.8,0c-0.2,0.2-0.2,0.6,0,0.8c0,0,0,0,0,0l2.8,2.9c0.8,0.8,2,1.2,3.2,0.9c2.3-0.5,4.5,0.8,5.1,3.1
	s-0.8,4.5-3.1,5.1c-1.4,0.3-2.9-0.1-4-1.1c-0.1-0.1-0.3-0.3-0.4-0.4c-0.2-0.3-0.6-0.3-0.8-0.1c-0.3,0.2-0.3,0.6-0.1,0.8
	c0.1,0.2,0.3,0.4,0.5,0.6c2.1,2.1,5.5,2.1,7.6,0s2.1-5.5,0-7.6c-1.3-1.3-3.3-1.9-5.1-1.4c-0.7,0.2-1.5-0.1-2.1-0.6l-1-1
	c0.9-1.3,1.6-2.8,1.8-4.4L31.6,21.7z"/>
<path d="M17.7,14.7c-1.4,0-2.6,1.2-2.6,2.6s1.2,2.6,2.6,2.6c1.4,0,2.6-1.2,2.6-2.6C20.3,15.9,19.1,14.7,17.7,14.7L17.7,14.7z
	 M17.7,18.7c-0.8,0-1.4-0.6-1.4-1.4s0.6-1.4,1.4-1.4s1.4,0.6,1.4,1.4v0C19.1,18.1,18.4,18.7,17.7,18.7L17.7,18.7z"/>
<path d="M20.8,20.5c0,1.3,1.1,2.4,2.4,2.4s2.4-1.1,2.4-2.4c0-1.3-1.1-2.4-2.4-2.4c0,0,0,0,0,0C21.9,18.1,20.8,19.2,20.8,20.5z
	 M23.2,19.3c0.7,0,1.2,0.5,1.2,1.2s-0.5,1.2-1.2,1.2c-0.7,0-1.2-0.5-1.2-1.2C22,19.8,22.5,19.3,23.2,19.3
	C23.2,19.3,23.2,19.3,23.2,19.3L23.2,19.3z"/>
<path d="M16.1,23.3c0,1.1,0.9,2,2,2s2-0.9,2-2s-0.9-2-2-2c-0.5,0-1,0.2-1.4,0.6C16.3,22.3,16.1,22.8,16.1,23.3z M19,23.3
	c0,0.5-0.4,0.8-0.8,0.8s-0.8-0.4-0.8-0.8s0.4-0.8,0.8-0.8h0C18.6,22.5,19,22.9,19,23.3L19,23.3z"/>
<circle cx="4.7" cy="6.5" r="0.6"/>
<circle cx="5.2" cy="8.6" r="0.6"/>
<circle cx="6.8" cy="7.4" r="0.6"/>
<path d="M32.7,30c-0.3,0-0.6,0.3-0.6,0.6s0.3,0.6,0.6,0.6s0.6-0.3,0.6-0.6l0,0C33.3,30.3,33,30,32.7,30z"/>
<path d="M32.6,32.8c0,0.3,0.3,0.6,0.6,0.6s0.6-0.3,0.6-0.6s-0.3-0.6-0.6-0.6l0,0C32.8,32.2,32.6,32.4,32.6,32.8z"/>
<circle cx="34.7" cy="31.5" r="0.6"/>
<circle cx="22.3" cy="25.8" r="0.6"/>
<circle cx="22.3" cy="14.7" r="0.6"/>
<circle cx="14.7" cy="21" r="0.6"/>
<g transform="translate(4.384 439.906)">
	<path class="st28" d="M6.1,13.3c0.4,0.1,0.9-0.1,1-0.5c0,0,0,0,0,0c1.6-4.7,6.7-7.3,11.4-5.7c3.7,1.2,6.2,4.7,6.2,8.6
		c0,3.9-1.7,6.2-3.1,8c-1,1.3-1.9,2.5-1.9,3.9c0,0.1,0,0.2,0,0.3h-3.3v-1.8c0-0.4-0.4-0.8-0.8-0.8c-0.4,0-0.8,0.3-0.8,0.8v1.8h-3.3
		c0-0.1,0-0.2,0-0.3c0-1.4-0.9-2.6-1.9-3.9c-1.3-1.5-2.2-3.2-2.8-5.1c-0.1-0.4-0.5-0.7-1-0.6s-0.7,0.5-0.6,1c0.6,2.1,1.6,4,3,5.6
		c0.9,1.2,1.6,2.1,1.6,3c0,0.4,0,0.7,0,1.1v6.6c0,0,0,0,0,0.1c0,0,0,0,0,0c0,0,0,0.1,0,0.1l0,0c0.3,1.3,1,2.4,2,3.3
		c2.1,1.7,5.1,1.7,7.2,0c1-0.8,1.7-2,2-3.3l0,0c0,0,0-0.1,0-0.1c0,0,0,0,0,0c0,0,0,0,0-0.1v-6.6c0-0.3,0-0.7,0-1.1
		c0-0.9,0.7-1.8,1.6-3c2.2-2.5,3.4-5.7,3.4-8.9C26.2,9.8,21.5,5,15.6,5C11.1,5,7,8,5.6,12.3C5.4,12.7,5.7,13.2,6.1,13.3
		C6.1,13.3,6.1,13.3,6.1,13.3L6.1,13.3z M15.6,38.4c-1.6,0-3-0.9-3.7-2.4h7.4C18.7,37.5,17.2,38.4,15.6,38.4z M19.6,34.5h-8v-1.8h8
		L19.6,34.5z M19.6,31.2h-8v-1.8h8L19.6,31.2z"/>
	<path class="st28" d="M15.6,3.6c0.4,0,0.8-0.3,0.8-0.8c0,0,0,0,0,0V0.8c0-0.4-0.3-0.8-0.8-0.8s-0.8,0.3-0.8,0.8c0,0,0,0,0,0v2.1
		C14.9,3.3,15.2,3.6,15.6,3.6z"/>
	<path class="st28" d="M0.8,16.4h2.1c0.4,0,0.8-0.3,0.8-0.8c0-0.4-0.3-0.8-0.8-0.8c0,0,0,0,0,0H0.8c-0.4,0-0.8,0.3-0.8,0.8
		C0,16.1,0.3,16.4,0.8,16.4L0.8,16.4z"/>
	<path class="st28" d="M19.2,17.2c0-0.4-0.3-0.8-0.8-0.8h0h-5.6c-0.4,0-0.8,0.3-0.8,0.8c0,0.4,0.3,0.8,0.8,0.8h2v1.8
		c0,0.4,0.3,0.8,0.8,0.8c0.4,0,0.8-0.3,0.8-0.8l0,0V18h2C18.9,18,19.2,17.7,19.2,17.2C19.2,17.2,19.2,17.2,19.2,17.2z"/>
	<path class="st28" d="M6.1,7.2c0.3,0.3,0.8,0.2,1.1-0.1c0.2-0.3,0.2-0.7,0-1L5.7,4.6C5.4,4.3,4.9,4.3,4.6,4.7c-0.3,0.3-0.3,0.7,0,1
		L6.1,7.2z"/>
	<path class="st28" d="M4.6,27.5c0.2,0,0.4-0.1,0.6-0.2l1.5-1.5C7,25.5,7,25,6.7,24.7S6,24.3,5.6,24.6c0,0-0.1,0.1-0.1,0.1L4,26.2
		c-0.3,0.3-0.3,0.8,0,1.1C4.2,27.4,4.4,27.5,4.6,27.5z"/>
	<path class="st28" d="M24.7,7.4c0.2,0,0.4-0.1,0.6-0.2l1.5-1.5C27,5.4,27,4.9,26.7,4.6c-0.3-0.3-0.7-0.3-1,0l-1.5,1.5
		c-0.3,0.3-0.3,0.8,0,1.1C24.3,7.3,24.5,7.4,24.7,7.4L24.7,7.4z"/>
	<path class="st28" d="M24.7,24.7c-0.3,0.3-0.3,0.8,0,1.1l1.5,1.5c0.3,0.3,0.8,0.2,1.1-0.1c0.2-0.3,0.2-0.7,0-1l-1.5-1.5
		C25.5,24.4,25,24.4,24.7,24.7z"/>
	<path class="st28" d="M28.4,16.4h2.1c0.4,0,0.8-0.3,0.8-0.8c0-0.4-0.3-0.8-0.8-0.8c0,0,0,0,0,0h-2.1c-0.4,0-0.8,0.3-0.8,0.8
		C27.7,16.1,28,16.4,28.4,16.4L28.4,16.4z"/>
	<path class="st28" d="M15.6,22.1c-0.4,0-0.8,0.3-0.8,0.8s0.3,0.8,0.8,0.8c0.4,0,0.8-0.3,0.8-0.8C16.4,22.5,16.1,22.1,15.6,22.1z"/>
	<path class="st28" d="M6.6,15.6c0-0.4-0.3-0.8-0.8-0.8S5,15.2,5,15.7c0,0.4,0.3,0.8,0.8,0.8C6.3,16.4,6.6,16.1,6.6,15.6z"/>
</g>
<g transform="translate(5.249 479.906)">
	<path class="st29" d="M10.9,28.6h9.6v6.6c-0.5,2.6-3.1,4.4-5.7,3.9c-2-0.4-3.5-1.9-3.9-3.9V28.6z"/>
	<path class="st30" d="M15.7,5.8c5.4,0,9.8,4.4,9.8,9.8c0,6.8-5,9-5,11.9c0,0.4,0,0.7,0,1.1h-9.6c0-0.3,0-0.7,0-1.1
		c0-2.9-5-5.1-5-11.9C5.8,10.2,10.2,5.8,15.7,5.8L15.7,5.8z"/>
	<path class="st28" d="M15.7,5C11.1,5,7,8,5.6,12.3c-0.1,0.4,0.1,0.9,0.5,1c0.4,0.1,0.8-0.1,1-0.5c1.6-4.7,6.7-7.3,11.4-5.7
		c3.7,1.2,6.2,4.7,6.2,8.6c0,3.9-1.7,6.2-3.1,8c-1,1.3-1.9,2.5-1.9,3.9c0,0.1,0,0.2,0,0.3h-3.3v-1.8c0-0.4-0.4-0.8-0.8-0.8
		c-0.4,0-0.8,0.3-0.8,0.8v1.8h-3.3c0-0.1,0-0.2,0-0.3c0-1.4-0.9-2.6-1.9-3.9c-1.3-1.5-2.2-3.2-2.8-5.1c-0.1-0.4-0.5-0.7-1-0.6
		s-0.7,0.5-0.6,1c0.6,2.1,1.6,4,3,5.6c0.9,1.2,1.6,2.1,1.6,3c0,0.4,0,0.7,0,1.1v6.6c0,0,0,0,0,0.1c0,0,0,0,0,0c0,0,0,0.1,0,0.1l0,0
		c0.3,1.3,1,2.4,2,3.3c2.1,1.7,5.1,1.7,7.2,0c1-0.8,1.7-2,2-3.3l0,0c0,0,0-0.1,0-0.1c0,0,0,0,0,0c0,0,0,0,0-0.1v-6.6
		c0-0.3,0-0.7,0-1.1c0-0.9,0.7-1.8,1.6-3c2.2-2.5,3.4-5.7,3.4-8.9C26.2,9.8,21.5,5.1,15.7,5L15.7,5z M11.7,32.7h8v1.8h-8L11.7,32.7z
		 M19.7,31.2h-8v-1.8h8L19.7,31.2z M15.7,38.4c-1.6,0-3-0.9-3.7-2.4h7.4C18.7,37.5,17.2,38.4,15.7,38.4z"/>
	<path class="st28" d="M15.6,3.6c0.4,0,0.8-0.3,0.8-0.8c0,0,0,0,0,0V0.8c0-0.4-0.4-0.8-0.8-0.8c-0.4,0-0.8,0.3-0.8,0.8v2.1
		C14.9,3.3,15.2,3.6,15.6,3.6z"/>
	<path class="st28" d="M2.9,14.9H0.8c-0.4,0-0.8,0.3-0.8,0.8c0,0.4,0.3,0.8,0.8,0.8h2.1c0.4,0,0.8-0.4,0.8-0.8
		C3.6,15.2,3.3,14.9,2.9,14.9L2.9,14.9z"/>
	<path class="st28" d="M19.2,17.2c0-0.4-0.3-0.8-0.8-0.8h0h-5.6c-0.4,0-0.8,0.3-0.8,0.8c0,0.4,0.3,0.8,0.8,0.8h2v1.8
		c0,0.4,0.3,0.8,0.8,0.8c0.4,0,0.8-0.3,0.8-0.8l0,0V18h2C18.9,18,19.2,17.7,19.2,17.2C19.2,17.2,19.2,17.2,19.2,17.2z"/>
	<path class="st28" d="M6.1,7.2c0.3,0.3,0.8,0.2,1.1-0.1c0.2-0.3,0.2-0.7,0-1L5.7,4.6C5.4,4.3,4.9,4.2,4.6,4.5S4.2,5.3,4.5,5.6
		c0,0,0.1,0.1,0.1,0.1L6.1,7.2z"/>
	<path class="st28" d="M5.5,24.7L4,26.2c-0.3,0.3-0.3,0.8,0.1,1.1c0.3,0.3,0.7,0.3,1,0l1.5-1.5c0.3-0.3,0.2-0.8-0.1-1.1
		C6.2,24.4,5.8,24.4,5.5,24.7L5.5,24.7z"/>
	<path class="st28" d="M24.7,7.4c0.2,0,0.4-0.1,0.6-0.2l1.5-1.5C27,5.4,27,4.9,26.7,4.6c-0.3-0.3-0.7-0.3-1,0l-1.5,1.5
		c-0.3,0.3-0.3,0.8,0,1.1C24.3,7.3,24.5,7.4,24.7,7.4L24.7,7.4z"/>
	<path class="st28" d="M25.8,24.7c-0.3-0.3-0.8-0.2-1.1,0.1c-0.2,0.3-0.2,0.7,0,1l1.5,1.5c0.3,0.3,0.8,0.2,1.1-0.1
		c0.2-0.3,0.2-0.7,0-1L25.8,24.7z"/>
	<path class="st28" d="M30.5,14.9h-2.1c-0.4,0-0.8,0.3-0.8,0.8c0,0.4,0.3,0.8,0.8,0.8h2.1c0.4,0,0.8-0.4,0.8-0.8
		C31.3,15.2,30.9,14.9,30.5,14.9L30.5,14.9z"/>
	<path class="st28" d="M15.6,22.1c-0.4,0-0.8,0.3-0.8,0.8s0.3,0.8,0.8,0.8c0.4,0,0.8-0.3,0.8-0.8C16.4,22.5,16.1,22.1,15.6,22.1z"/>
	<path class="st28" d="M5.8,16.4c0.4,0,0.8-0.3,0.8-0.8c0-0.4-0.3-0.8-0.8-0.8c-0.4,0-0.8,0.3-0.8,0.8C5,16.1,5.4,16.4,5.8,16.4z"/>
</g>
</svg>
