<svg xmlns="http://www.w3.org/2000/svg" width="504.5" height="512" viewBox="0 0 504.5 512"><title>night</title><path d="M7.5,256C7.5,393.2,118.8,504.5,256,504.5V7.5C118.8,7.5,7.5,118.8,7.5,256Z" fill="#55606e"/><path d="M256,7.5v497c137.2,0,248.5-111.3,248.5-248.5S393.2,7.5,256,7.5Z" fill="#adadad"/><path d="M31.6,256C31.6,380,132,480.4,256,480.4V31.6C132,31.6,31.6,132,31.6,256Z" fill="#68727e"/><path d="M256,31.6V480.4C380,480.4,480.4,380,480.4,256S380,31.6,256,31.6Z" fill="#828282"/><path d="M143.8,248a48.1,48.1,0,0,1,19.5-38.7,48.1,48.1,0,1,0,17.1,85.4A48.2,48.2,0,0,1,143.8,248Z" fill="#ffd072"/><circle cx="376.2" cy="256" r="48.1" fill="#efefef"/><circle cx="376.2" cy="256" r="32.1" fill="#f4f4f4"/><path d="M400.3,103.7a24.2,24.2,0,0,0-8.1,1.4c0-.5.1-.9.1-1.4a24.1,24.1,0,0,0-48.1,0v1.4a23.6,23.6,0,0,0-8-1.4,24.1,24.1,0,0,0-24.1,24.1H424.3A24,24,0,0,0,400.3,103.7Z" fill="#c6cacf"/><path d="M368.2,400.3a23.6,23.6,0,0,0-8,1.4v-1.4a24.1,24.1,0,1,0-48.1,0,7.1,7.1,0,0,0,.1,1.4,24.6,24.6,0,0,0-8.1-1.4,24,24,0,0,0-24.1,24H392.3A24,24,0,0,0,368.2,400.3Z" fill="#c6cacf"/><path d="M187.7,293.2a7.3,7.3,0,0,0-5.5-5.8,40.6,40.6,0,0,1-14.4-72.1c5-3.7,3.3-11.8-2.7-13.3a54.4,54.4,0,0,0-13.3-1.6,55.6,55.6,0,1,0,33,100.3A7.3,7.3,0,0,0,187.7,293.2Zm-35.9,3.4a40.6,40.6,0,0,1-5.2-80.8,55.6,55.6,0,0,0,15.8,79.4A41.7,41.7,0,0,1,151.8,296.6Z"/><path d="M192.9,120.2h-1a7.6,7.6,0,0,0,0,15.1h1a7.6,7.6,0,0,0,0-15.1Z"/><path d="M233,336.7h-1a7.5,7.5,0,1,0,0,15h1a7.5,7.5,0,1,0,0-15Z"/><path d="M96.7,352.7h-1a7.5,7.5,0,1,0,0,15h1a7.5,7.5,0,0,0,0-15Z"/><path d="M208.9,232.5h-1a7.5,7.5,0,1,0,0,15h1a7.5,7.5,0,0,0,0-15Z"/><path d="M184.9,392.8h-1a7.5,7.5,0,1,0,0,15h1a7.5,7.5,0,1,0,0-15Z"/><path d="M95.7,175.3h1a7.5,7.5,0,0,0,0-15h-1a7.5,7.5,0,1,0,0,15Z"/><path d="M48.6,240.5h-1a7.5,7.5,0,0,0,0,15h1a7.5,7.5,0,1,0,0-15Z"/><path d="M431.8,256a55.6,55.6,0,1,0-55.6,55.6A55.6,55.6,0,0,0,431.8,256Zm-55.6,40.6A40.6,40.6,0,1,1,416.8,256,40.6,40.6,0,0,1,376.2,296.6Z"/><path d="M383.8,183.9V167.8a7.6,7.6,0,0,0-15.1,0v16.1a7.6,7.6,0,0,0,15.1,0Z"/><path d="M340.2,201a7.5,7.5,0,0,0,6.5-11.2l-8-13.9a7.5,7.5,0,0,0-13.1,7.5l8.1,13.9A7.3,7.3,0,0,0,340.2,201Z"/><path d="M296.1,218.4l13.9,8a7.5,7.5,0,0,0,11.1-4.9,7.6,7.6,0,0,0-3.6-8.1l-13.9-8a7.5,7.5,0,0,0-7.5,13Z"/><path d="M288.1,263.5h16a7.5,7.5,0,0,0,0-15h-16a7.5,7.5,0,1,0,0,15Z"/><path d="M310,285.6l-13.9,8a7.5,7.5,0,0,0,7.5,13l13.9-8a7.6,7.6,0,0,0,2.8-10.3A7.5,7.5,0,0,0,310,285.6Z"/><path d="M333.7,314.7l-8.1,13.9a7.5,7.5,0,0,0,13.1,7.5l8-13.9a7.5,7.5,0,0,0-2.8-10.2A7.4,7.4,0,0,0,333.7,314.7Z"/><path d="M368.7,328.1v16.1a7.6,7.6,0,0,0,15.1,0V328.1a7.6,7.6,0,0,0-15.1,0Z"/><path d="M418.8,314.7a7.5,7.5,0,0,0-13,7.5l8,13.9a7.5,7.5,0,1,0,13-7.5Z"/><path d="M456.4,293.6l-13.9-8a7.5,7.5,0,1,0-7.5,13l13.8,8a7.5,7.5,0,0,0,7.6-13Z"/><path d="M464.4,248.5h-16a7.5,7.5,0,0,0,0,15h16a7.5,7.5,0,0,0,0-15Z"/><path d="M432.2,223.7a7.6,7.6,0,0,0,10.3,2.7l13.9-8a7.5,7.5,0,0,0-7.6-13l-13.8,8A7.5,7.5,0,0,0,432.2,223.7Z"/><path d="M412.3,201a7.5,7.5,0,0,0,6.5-3.7l8-13.9a7.5,7.5,0,0,0-2.7-10.3,7.6,7.6,0,0,0-10.3,2.8l-8,13.9A7.5,7.5,0,0,0,412.3,201Z"/><path d="M312.1,135.3H424.3a7.5,7.5,0,0,0,7.5-7.6,31.5,31.5,0,0,0-31.5-31.5h-1.4a31.5,31.5,0,0,0-61.3,0h-1.4a31.6,31.6,0,0,0-31.6,31.5A7.6,7.6,0,0,0,312.1,135.3Zm24.1-24.1a20.5,20.5,0,0,1,6,1.1,6.9,6.9,0,0,0,5.1-.4,6.8,6.8,0,0,0,3.5-3.2,9.7,9.7,0,0,0,.9-5,16.6,16.6,0,0,1,33.1,0c0,2.7.3,5,2.3,6.9a7.6,7.6,0,0,0,7.6,1.6,15.4,15.4,0,0,1,5.6-1,16.6,16.6,0,0,1,14.7,9H321.4A16.7,16.7,0,0,1,336.2,111.2Z"/><path d="M368.2,392.8h-1.4a31.5,31.5,0,0,0-61.3,0h-1.4a31.6,31.6,0,0,0-31.6,31.5,7.5,7.5,0,0,0,7.5,7.5H392.3a7.5,7.5,0,0,0,7.5-7.5A31.6,31.6,0,0,0,368.2,392.8Zm-78.8,24a16.6,16.6,0,0,1,14.7-9,14.5,14.5,0,0,1,5.5,1,7.9,7.9,0,0,0,7.1-1.1,7.7,7.7,0,0,0,3-6.5,2.8,2.8,0,0,1-.1-.9,16.6,16.6,0,1,1,33.1,0v.9a7.2,7.2,0,0,0,3,6.5,7.6,7.6,0,0,0,7,1.1,14.9,14.9,0,0,1,5.5-1,16.6,16.6,0,0,1,14.7,9Z"/><path d="M75,75a255.9,255.9,0,0,0,0,362,254,254,0,0,0,181,75V0A254,254,0,0,0,75,75ZM248.5,496.8C119.1,492.9,15,386.4,15,256S119.1,19.1,248.5,15.2Z"/></svg>