<svg xmlns="http://www.w3.org/2000/svg" width="512" height="512" viewBox="0 0 512 512"><title>virus</title><path d="M368.2,428.3a55.1,55.1,0,0,1,1.2-19.8,43.1,43.1,0,0,0-10.7-39.8l-30.2-30.3a7.5,7.5,0,0,0-10.6,0,7.4,7.4,0,0,0,0,10.6l6.6,6.6a119.9,119.9,0,0,1-54,20.4,7.6,7.6,0,0,0-6.7,7.5v21.6A42,42,0,0,0,278.2,437a34.1,34.1,0,1,1-56.3,25.9,7.5,7.5,0,0,0-15,0A49.1,49.1,0,1,0,288,425.6a27,27,0,0,1-9.2-20.5V390a135.8,135.8,0,0,0,56.5-23.6l12,12a28.3,28.3,0,0,1,7.6,26.5,66.9,66.9,0,0,0-1.6,25.2,7.4,7.4,0,0,0,8.3,6.6,7.6,7.6,0,0,0,6.6-8.4Z" transform="translate(0 0)"/><path d="M234.2,404.2a26.8,26.8,0,0,1-9.6,20.9,7.6,7.6,0,0,0-1,10.6,7.5,7.5,0,0,0,10.6.9,41.8,41.8,0,0,0,15-32.4V383.6a7.6,7.6,0,0,0-6.7-7.5A120.1,120.1,0,0,1,181.2,351a7.5,7.5,0,0,0-10,.5l-20.7,20.8a42.6,42.6,0,0,0-12.7,31.3,25.3,25.3,0,1,1-50.5.7,25,25,0,0,1,7.4-17.9,25.6,25.6,0,0,1,14.9-7.2A43.5,43.5,0,0,0,135,367l25.8-25.8a7.5,7.5,0,0,0,.5-10,119.9,119.9,0,0,1-24.1-52.9h19.9a7.5,7.5,0,0,0,0-15H107.4A41.9,41.9,0,0,0,75.2,278a34.1,34.1,0,1,1,0-44,41.9,41.9,0,0,0,32.2,14.7h39.7a7.5,7.5,0,0,0,0-15h-9.9a119.9,119.9,0,0,1,19.2-46.2L170,201.2a7.6,7.6,0,0,0,10.7,0,7.5,7.5,0,0,0,0-10.6l-36.5-36.5a43.1,43.1,0,0,0-40.7-11.5,54,54,0,1,1,39.2-39.5c-3.5,14.2,1,29.7,11.6,40.4l29.9,29.9a7.4,7.4,0,0,0,5.3,2.2,7.1,7.1,0,0,0,5.3-2.2,7.4,7.4,0,0,0,0-10.6l-6.7-6.8a118.3,118.3,0,0,1,54.4-20.1,7.6,7.6,0,0,0,6.7-7.5V107.8a41.8,41.8,0,0,0-15-32.4,34.1,34.1,0,1,1,55.9-26.3,7.5,7.5,0,1,0,15,0,49.1,49.1,0,1,0-80.5,37.8,26.8,26.8,0,0,1,9.6,20.9v14.1a135.6,135.6,0,0,0-56.9,23.3l-12.4-12.3c-6.9-7-9.9-17.1-7.6-26.3a69.1,69.1,0,1,0-50.2,50.5,28.3,28.3,0,0,1,26.5,7.6l12,12a135.4,135.4,0,0,0-23.7,57H107.4a27.2,27.2,0,0,1-20.8-9.4,49.1,49.1,0,1,0,0,63.4,27.2,27.2,0,0,1,20.8-9.4h14.5a134.5,134.5,0,0,0,23.7,56.9l-21.2,21.2a28.5,28.5,0,0,1-16.5,7.9,40.3,40.3,0,0,0-23.8,68.5,40.6,40.6,0,0,0,57,0,39.9,39.9,0,0,0,11.7-29.6,27.5,27.5,0,0,1,8.3-20.3l16.1-16.2a134.9,134.9,0,0,0,57,23.4v14.1Z" transform="translate(0 0)"/><path d="M404.6,278.3a27.2,27.2,0,0,1,20.8,9.4,49.1,49.1,0,1,0,0-63.4,27.2,27.2,0,0,1-20.8,9.4H390.1a135.5,135.5,0,0,0-23.4-56.5L390,153.9a27.7,27.7,0,0,1,15.5-7.8,34.7,34.7,0,0,0,29.3-34.2,34.5,34.5,0,0,0-10.2-24.5,34.1,34.1,0,0,0-24.5-10.2h0a34.8,34.8,0,0,0-34.4,30.3,26.3,26.3,0,0,1-7.8,15.3l-22.7,22.8A135.4,135.4,0,0,0,278.8,122V106.9A27.4,27.4,0,0,1,288,86.3a7.4,7.4,0,0,0,.8-10.5,7.5,7.5,0,0,0-10.6-.8,42,42,0,0,0-14.4,31.9v21.6a7.6,7.6,0,0,0,6.7,7.5,120.1,120.1,0,0,1,60.7,25.3,7.5,7.5,0,0,0,10-.5l27.3-27.4a41.6,41.6,0,0,0,12.1-24,19.7,19.7,0,0,1,19.5-17.2h0A19.7,19.7,0,0,1,414,125.8a18.8,18.8,0,0,1-10.8,5.5,43.1,43.1,0,0,0-23.8,12l-27.9,27.9a7.5,7.5,0,0,0-.5,10,119.1,119.1,0,0,1,23.8,52.5H354.9a7.5,7.5,0,0,0,0,15h49.7A41.9,41.9,0,0,0,436.8,234a34.1,34.1,0,1,1,0,44,41.9,41.9,0,0,0-32.2-14.7H364.9a7.5,7.5,0,0,0,0,15h9.9A118.1,118.1,0,0,1,356,323.9l-13.3-13.3a7.5,7.5,0,0,0-10.6,0,7.4,7.4,0,0,0,0,10.6l36.4,36.5c10.7,10.6,26.2,15.1,40.4,11.6a53.9,53.9,0,1,1-25.4,90.6c-1.7-1.8-3.3-3.7-4.8-5.6a7.5,7.5,0,0,0-10.5-1.5,7.6,7.6,0,0,0-1.5,10.6c1.9,2.4,4,4.8,6.2,7.1a69,69,0,1,0,32.5-115.8c-9.2,2.3-19.3-.7-26.3-7.6l-12.3-12.4a136.2,136.2,0,0,0,23.3-56.4Z" transform="translate(0 0)"/><path d="M226,188.3a33.3,33.3,0,1,0,33.3,33.3A33.4,33.4,0,0,0,226,188.3Zm0,51.6a18.3,18.3,0,1,1,18.3-18.3A18.3,18.3,0,0,1,226,239.9Z" transform="translate(0 0)"/><path d="M266.5,262.2a30.5,30.5,0,1,0,30.4-30.4A30.4,30.4,0,0,0,266.5,262.2Zm30.4-15.4a15.4,15.4,0,1,1-15.4,15.4A15.5,15.5,0,0,1,296.9,246.8Z" transform="translate(0 0)"/><path d="M206.5,298.5a25.8,25.8,0,1,0,25.7-25.8A25.7,25.7,0,0,0,206.5,298.5Zm36.5,0a10.8,10.8,0,1,1-10.8-10.8A10.8,10.8,0,0,1,243,298.5Z" transform="translate(0 0)"/><circle cx="60.5" cy="82.7" r="7.5"/><circle cx="66.2" cy="110.5" r="7.5"/><circle cx="86.6" cy="94.4" r="7.5"/><path d="M418.5,384.2a7.5,7.5,0,1,0,7.5,7.5A7.5,7.5,0,0,0,418.5,384.2Z" transform="translate(0 0)"/><path d="M416.7,419.5a7.5,7.5,0,0,0,15,0,7.5,7.5,0,0,0-15,0Z" transform="translate(0 0)"/><circle cx="444.6" cy="403.4" r="7.5"/><circle cx="285.6" cy="330.4" r="7.5"/><circle cx="285.6" cy="188.4" r="7.5"/><circle cx="188.6" cy="268.4" r="7.5"/></svg>